<svg xmlns="http://www.w3.org/2000/svg" width="255.562" height="54.363" viewBox="0 0 255.562 54.363">
  <g id="barrons-logo-vector" transform="translate(0 0)">
    <path id="Path_46585" data-name="Path 46585" d="M391.753,296.463c-.639,5.749-2.044,5.622-3.833,6.133-1.661.383-1.022,1.405,0,1.278.383,0,3.322-.383,5.238-.383,2.811,0,5.238.255,6.644.255.511,0,1.278-.767,0-1.15-1.533-.383-5.494,0-5.877-6.9-.255-5.111.128-22.358.128-22.358,0-1.15.128-1.405.383-1.405.383,0,.767.639,1.15,1.15l24.019,30.62c2.555,2.939,2.683,2.044,2.683-.894-.128-9.582.128-36.114.128-36.114.128-5.238,4.727-3.066,4.727-4.727a.468.468,0,0,0-.511-.511c-1.405,0-5.238.383-7.155.383-1.789,0-2.811-.255-4.6-.255-.383,0-.639.128-.639.639,0,1.661,6.133-1.15,5.877,7.538V294.8c0,.511,0,1.405-.894,0l-24.914-31.9c-.383-.383-.894-1.405-1.405-1.405-.894,0-3.577.256-4.472.256s-1.789-.256-2.683-.256c-.255,0-.894.256-.894.639.256,2.172,6.9-.383,7.027,9.454,0-.043.128,22.316-.128,24.871m39.18-39.99a20.092,20.092,0,0,0-2.427,1.533,1.328,1.328,0,0,0-.256,1.661c1.405,2.683,2.811,7.155-.639,12.648-.511.894-1.405,1.15-1.022,1.533.511.383,2.044-.639,2.811-1.405,3.833-3.705,5.11-10.093,2.939-14.693-.511-.894-.767-1.405-1.405-1.278m4.855,44.035c.256,1.022,5.111,3.194,9.454,3.194,13.287,0,16.481-7.282,16.481-12.265,0-15.97-22.614-10.093-22.614-21.336,0-5.494,4.216-7.794,8.943-7.794a11.682,11.682,0,0,1,10.86,7.41c.255.511.511,1.789,1.15,1.789s.511-.383.383-.894l-.894-8.432c0-.639-.383-.894-.767-.894-.639,0-.894,1.022-2.044.894-.767-.128-2.172-1.789-8.3-1.789-6.771,0-12.521,4.088-12.521,11.754,0,15.076,21.975,9.327,22.1,20.442,0,6.26-3.961,9.582-9.582,9.582a12.791,12.791,0,0,1-12.393-9.071c-.255-1.278-.383-1.916-1.022-1.789s-.511.767-.256,1.916c.128-.213.894,2.342,1.022,7.282m-70.738,4.344c13.415,0,22.742-8.943,22.742-22.742,0-12.648-9.454-21.72-21.72-21.72s-21.975,9.2-21.975,21.975c-.128,13.074,7.921,22.486,20.953,22.486m-.511-41.863c11.754,0,18.781,10.476,18.781,21.592,0,11.371-7.41,18.27-16.1,18.27-11.882,0-18.781-10.732-18.781-22.1-.128-9.71,6-17.759,16.1-17.759" transform="translate(-206.162 -256.454)" fill="#adadad"/>
    <path id="Path_46586" data-name="Path 46586" d="M233.226,287.6c3.833-1.661,7.41-5.494,7.41-10.221,0-11.626-12.521-10.988-13.415-10.988-2.811,0-6.516.511-9.582.511-2.811,0-3.961-.256-4.983-.256-.639,0-1.15.383-1.15.767,0,2.044,6.26-1.022,6.133,5.494v30.62c0,4.6-3.194,4.216-3.833,4.727-.256.256-.639,1.022-.256,1.022,2.044,0,4.344-.256,6.388-.256a54,54,0,0,1,7.793.383c.767.256,1.15-.767.256-1.15-1.15-.383-6,.255-6-4.727V290.922c0-.639-.383-1.661,1.405-1.661,5.494-.128,5.366-.511,6.26.894,0,0,10.476,12.776,16.1,18.142,4.983,4.727,11.115,7.921,15.076,8.177,5.366.255,8.177-.639,8.177-1.405,0-1.405-4.6,2.555-17.376-7.538C243.958,301.4,234.5,289.9,233.1,287.983c0-.128.128-.255.128-.383m-11.371-16.992c0-2.3,1.278-2.044,3.194-2.044,5.366,0,10.732,2.683,10.732,9.965,0,7.41-5.622,8.56-8.049,8.56-2.555,0-5.877.255-5.877-.894ZM198.092,287.6c3.833-1.661,7.921-5.622,7.921-10.349,0-11.626-13.415-10.732-14.309-10.732-2.939,0-6.133.511-9.327.511-2.811,0-3.705-.256-4.727-.256-.639,0-1.15.383-1.15.767,0,1.661,6-1.022,6,5.366v30.62c0,4.727-3.322,4.6-4.472,4.6-1.405,0,.639,1.278.894,1.278,2.172,0,3.705-.511,5.877-.511a75.551,75.551,0,0,1,8.177.511c1.278.256,1.533-.767.256-1.022-2.044-.511-6.388-.383-6.516-5.366V290.922c0-.639-.383-1.661,1.405-1.661,6.26,0,5.749-.256,7.794,3.066l6.9,10.6c2.172,3.45,4.216,6.516,8.3,6.516.511,0,4.344.128,4.216-.639,0-.767.767-1.15-.894-.894-1.278.256-3.833-.767-6.516-5.11l-9.965-14.82c-.128-.128.128-.383.128-.383m-11.2-16.865c0-2.3,1.15-2.172,3.194-2.172,5.749-.256,10.988,2.555,10.988,9.838,0,7.41-5.238,8.816-7.666,8.816-2.555,0-6.516.383-6.516-.767Z" transform="translate(-109.941 -262.156)" fill="#adadad"/>
    <path id="Path_46587" data-name="Path 46587" d="M116.835,297.392c.511,1.661,1.022,3.577,1.533,4.855,1.15,2.683-1.789,3.705-2.811,3.577-.894-.128-.639,1.533.894,1.278a31.083,31.083,0,0,1,4.855-.383c2.3,0,4.216.383,6.516.383.383,0,1.533-1.022.511-1.278a4.747,4.747,0,0,1-4.088-2.427,48.073,48.073,0,0,1-2.939-7.027L109.425,264.6c-.128-.511-.511-2.3-1.15-2.3-.767,0-.894,1.022-4.216,8.816L90.772,302.63c-1.405,3.577-4.472,2.427-4.472,3.705,0,.383.511.767.894.767,1.405,0,3.066-.383,4.6-.383a25.359,25.359,0,0,1,5.11.383c1.405.256,1.661-.894.511-1.278-1.533-.383-3.961-1.022-3.577-3.833.511-3.705,3.705-10.093,3.705-10.093a3.155,3.155,0,0,1,2.939-1.789h12.265c1.533,0,1.916.639,2.427,2.044Zm-10.476-26.319c.383-.767.639-.767.894,0L113,286.788c.256.767.383,1.278-.894,1.278H100.482c-.767,0-1.15-.255-.767-1.15Z" transform="translate(-58.154 -259.811)" fill="#adadad"/>
    <path id="Path_46588" data-name="Path 46588" d="M25.146,302.773c0,4.727-2.044,5.238-2.683,5.494-1.022.383-2.172,0-2.044,1.15,0,.511,1.405.511,1.789.511,2.683,0,4.344-.128,7.155-.128,2.044,0,6.9.511,9.071.511,11.5,0,13.926-8.688,13.926-13.159,0-8.56-9.2-9.838-9.2-10.732,0-.383,5.749-2.683,5.749-8.816,0-4.472-2.811-10.221-13.159-10.221-4.855-.255-5.877.256-8.177.256S21.952,267,20.8,267c-.639,0-1.022.767.256,1.278,1.022.511,4.088.383,4.088,4.983Zm4.216-13.926c0-.511-.256-1.405,4.216-1.405,13.543,0,13.671,7.921,13.671,11.882,0,3.577-1.15,9.2-10.221,9.327-8.3.128-7.793-1.661-7.793-6v-13.8Zm0-15.2c0-3.45-.256-4.344,3.45-4.472,7.027-.128,12.01,3.833,11.882,10.349-.128,3.577-2.427,6.644-10.093,6.516-5.238-.128-5.238-.383-5.238-2.3Z" transform="translate(-20.211 -262.509)" fill="#adadad"/>
  </g>
</svg>
