<svg id="Group_4799" data-name="Group 4799" xmlns="http://www.w3.org/2000/svg" xmlns:xlink="http://www.w3.org/1999/xlink" width="183.61" height="73.108" viewBox="0 0 183.61 73.108">
  <defs>
    <clipPath id="clip-path">
      <rect id="Rectangle_21892" data-name="Rectangle 21892" width="183.61" height="73.108" fill="#adadad"/>
    </clipPath>
  </defs>
  <g id="Group_4798" data-name="Group 4798" transform="translate(0 0)" clip-path="url(#clip-path)">
    <path id="Path_46744" data-name="Path 46744" d="M81.188,31.33c.933,1.182,1.948,2.431,2.923,3.708,1.052,1.375,2.062,2.782,3.1,4.165.676.9,1.368,1.791,2.061,2.681,2.133,2.743,4.295,5.464,6.4,8.229,1.678,2.207,3.257,4.49,4.939,6.694,1.09,1.426,2.272,2.782,3.441,4.145,1.713,2,3.32,4.11,5.214,5.922a12.876,12.876,0,0,0,7.593,3.8c.863.091,1.717.261,2.574.4.574.094,1.017.383,1,1-.014.638-.532.782-1.055.785-3.387.015-6.773.049-10.159.007-1.182-.015-2.36-.257-3.543-.341-2.86-.205-4.877-1.805-6.6-3.908-1.63-1.994-3.275-3.976-4.861-6.006s-3.116-4.1-4.652-6.174c-2.488-3.348-4.929-6.73-7.45-10.052-2.747-3.623-5.528-7.223-8.384-10.759a2.955,2.955,0,0,0-1.983-.8c-3.359-.154-6.723-.2-10.086-.25-.183,0-.534.316-.534.486,0,4.228,0,8.457.085,12.683.038,1.848.211,3.7.418,5.537.176,1.561,1.387,2.439,3.315,2.6,1.183.1,2.372.184,3.543.369.363.057.678.419,1.014.641-.285.34-.506.84-.868.981a5.749,5.749,0,0,1-1.943.314c-.984.018-1.969-.092-2.954-.115-3.015-.07-6.033-.183-9.048-.162-2.462.017-4.921.244-7.384.291a8.208,8.208,0,0,1-2.452-.409,1.116,1.116,0,0,1-.637-.877c.028-.268.5-.609.834-.7a11.532,11.532,0,0,1,1.727-.155,6.4,6.4,0,0,0,1.19-.2c1.358-.412,2.368-1.058,2.417-2.734.059-2.075.464-4.145.469-6.219.036-12.141,0-24.282-.011-36.424,0-1.392.015-2.782-.017-4.173a3.235,3.235,0,0,0-3.04-3.542c-1.109-.189-2.247-.211-3.364-.363a3.2,3.2,0,0,1-1.266-.444.911.911,0,0,1-.327-.8c.066-.239.418-.43.683-.571a1.323,1.323,0,0,1,.6-.05c5.629.071,11.258.179,16.887.205C64.752.779,68.495.65,72.239.643A30.908,30.908,0,0,1,82.423,2.189c2.012.693,4.082,1.44,5.54,3.125a13.9,13.9,0,0,1,3.452,12.379A14.315,14.315,0,0,1,89.04,23.5a55.035,55.035,0,0,1-4.911,5.468,30.9,30.9,0,0,1-2.941,2.361M60.924,5.218V30a63.735,63.735,0,0,0,12.518.542A6.967,6.967,0,0,0,78.6,27.853,11.449,11.449,0,0,0,80.948,22.6a25.247,25.247,0,0,0,.207-6.645A11.811,11.811,0,0,0,74.843,6.39a14.934,14.934,0,0,0-7.9-1.477c-1.39.046-2.78.081-4.169.141-.6.027-1.2.1-1.851.163" transform="translate(17.008 0.217)" fill="#adadad"/>
    <path id="Path_46745" data-name="Path 46745" d="M137.16,30.416q5.311,0,10.62,0a1.782,1.782,0,0,1,.77.066,5.509,5.509,0,0,1,.859.693,3.806,3.806,0,0,1-.911.661,9.681,9.681,0,0,1-1.452.238c-2.628.495-3.721,1.805-3.725,4.495-.008,4.694.028,9.389-.02,14.082-.017,1.674-.193,3.349-.374,5.014-.029.267-.433.6-.736.714a45.029,45.029,0,0,1-10.209,2.752,65.379,65.379,0,0,1-8.741.689,53.479,53.479,0,0,1-16.868-2.483c-1.73-.591-3.394-1.385-5.063-2.14a26.781,26.781,0,0,1-9.242-7.187,24.087,24.087,0,0,1-4.627-8.843,31.558,31.558,0,0,1-1.323-9.15,27.43,27.43,0,0,1,1.836-10.7c.707-1.721,1.41-3.455,2.254-5.114a12.085,12.085,0,0,1,1.855-2.491c1.1-1.225,2.291-2.377,3.444-3.559,2.5-2.561,5.741-3.951,8.932-5.262A40.17,40.17,0,0,1,117.114.127,81.234,81.234,0,0,1,136.829,1.6a35.576,35.576,0,0,0,4.929.411c.708.028.935.27.886.915-.126,1.615-.3,3.23-.353,4.847-.067,2.171,0,4.347-.057,6.518a7.833,7.833,0,0,1-.376,2.21c-.1.313-.581.5-.89.749-.17-.285-.468-.559-.495-.856a10.319,10.319,0,0,0-5.3-8.351A26.856,26.856,0,0,0,128.788,5.1a30.172,30.172,0,0,0-10.424-1.034,28.4,28.4,0,0,0-6.857.958,28.063,28.063,0,0,0-5.83,3.208,15.7,15.7,0,0,0-4.363,4.278,14.4,14.4,0,0,0-1.593,3.158,33.218,33.218,0,0,0-1.773,15.454,30.011,30.011,0,0,0,4.165,12.548,27.3,27.3,0,0,0,3.177,4.113c.954,1.084,2.071,2.026,3.124,3.021a2.449,2.449,0,0,0,.634.453,64.1,64.1,0,0,0,8.2,3.519,32.713,32.713,0,0,0,11.269.942,8.011,8.011,0,0,0,3.236-1.15,2.1,2.1,0,0,0,.809-1.584c.053-5.5.084-11.011-.006-16.516-.048-2.9-1.306-4.116-4.182-4.423-.8-.085-1.612-.156-2.42-.175-.566-.013-.925-.261-.956-.789-.034-.6.509-.652.929-.665,1.014-.031,2.031,0,3.047,0q4.091,0,8.182,0" transform="translate(34.201 0)" fill="#adadad"/>
    <path id="Path_46746" data-name="Path 46746" d="M53.25,44.294c-.112,1.29-.149,2.582-.351,3.849-.351,2.2-.81,4.374-1.211,6.561a2.7,2.7,0,0,1-2.629,2.632c-1.815.346-3.612.8-5.431,1.122a27.745,27.745,0,0,1-2.859.212,47.293,47.293,0,0,1-9.464-.034c-2.268-.3-4.559-.483-6.793-.94a42.164,42.164,0,0,1-5.454-1.656A27.332,27.332,0,0,1,2.729,41.811a28.808,28.808,0,0,1-2.7-10.952,32.406,32.406,0,0,1,1-9.361A23.933,23.933,0,0,1,2.6,16.858c.7-1.456,1.907-2.676,2.589-4.137C6.363,10.2,8.554,8.7,10.557,7.055a31.514,31.514,0,0,1,9-4.8A30.291,30.291,0,0,1,29.888.214a78.482,78.482,0,0,1,13.8.669c2.743.439,5.491.847,8.246,1.195.928.117,1.169.594,1.125,1.393-.087,1.59-.194,3.18-.26,4.771-.091,2.254-.12,4.514-.246,6.766a3.5,3.5,0,0,1-.542,1.579c-.235.377-.687.345-.861-.148a6.269,6.269,0,0,1-.353-1.5A10,10,0,0,0,49,9.68a11.8,11.8,0,0,0-4.309-3.469C40.807,4.2,36.6,3.826,32.378,3.693c-2-.063-4.011.5-6.027.623-2.036.126-3.725,1.2-5.59,1.786a2.188,2.188,0,0,0-.556.4c-.623.461-1.277.889-1.858,1.4a21.7,21.7,0,0,0-1.755,1.776c-.792.882-1.559,1.786-2.312,2.7a3.242,3.242,0,0,0-.295.683,6.937,6.937,0,0,1-.362.673c-.057.094-.2.147-.232.243-.439,1.227-.93,2.437-1.284,3.69a38.874,38.874,0,0,0-1.26,13.325,24.456,24.456,0,0,0,4.17,12.159,26.333,26.333,0,0,0,5.839,6.269,22.62,22.62,0,0,0,13.5,5.028,57.958,57.958,0,0,0,7.627-.376,10.8,10.8,0,0,0,7.545-4.21,20.913,20.913,0,0,0,2.318-4.721c.265-.643.5-.985,1.4-.848" transform="translate(0 0.072)" fill="#adadad"/>
  </g>
</svg>
