<svg xmlns="http://www.w3.org/2000/svg" width="488.814" height="491.713" viewBox="0 0 488.814 491.713">
  <g id="Group_4899" data-name="Group 4899" transform="translate(-1280.859 -2574.656)">
    <path id="Path_46765" data-name="Path 46765" d="M231.9,531.152a13.067,13.067,0,0,0,23.832.022l35.822-79.381a10.053,10.053,0,0,0-9.164-14.188H205.435a10.053,10.053,0,0,0-9.171,14.17Z" transform="translate(1280.859 2527.502)" fill="#365bc1"/>
    <path id="Path_46766" data-name="Path 46766" d="M487.767,15.37C491.4,8.085,485.133,0,475.856,0H12.958C3.69,0-2.575,8.068,1.037,15.352L174.444,365.008c2.844,5.735,9.141,9.424,16.085,9.424h106.88c6.932,0,13.22-3.677,16.072-9.4Z" transform="translate(1280.859 2574.656)" fill="#eff4f7"/>
    <text id="Investments_Reviewed" data-name="Investments Reviewed" transform="translate(1420.273 2704.07)" fill="#000c45" font-size="24" font-family="PPRadioGrotesk-Regular, PP Radio Grotesk" letter-spacing="0.01em"><tspan x="44" y="24">Investments </tspan><tspan x="56" y="48">Reviewed</tspan></text>
    <text id="Approved" transform="translate(1622.317 3013.396)" fill="#000c45" font-size="24" font-family="PPRadioGrotesk-Regular, PP Radio Grotesk" letter-spacing="0.01em"><tspan x="-49" y="0">Approved</tspan></text>
    <text id="_1_" data-name="&lt;1%" transform="translate(1509.273 3012.396)" fill="#fff" font-size="14" font-family="Pragmatica-Book, Pragmatica" letter-spacing="0.015em"><tspan x="0" y="0">&lt;1%</tspan></text>
  </g>
</svg>
