<svg id="Group_4915" data-name="Group 4915" xmlns="http://www.w3.org/2000/svg" xmlns:xlink="http://www.w3.org/1999/xlink" width="88.227" height="94.894" viewBox="0 0 88.227 94.894">
  <defs>
    <clipPath id="clip-path">
      <rect id="Rectangle_21923" data-name="Rectangle 21923" width="88.227" height="94.894" fill="#adadad"/>
    </clipPath>
  </defs>
  <g id="Group_4914" data-name="Group 4914" clip-path="url(#clip-path)">
    <path id="Path_46814" data-name="Path 46814" d="M0,47.414V.541C0,0,0,0,.518,0H8.744c.536,0,.538,0,.538.517q0,11.423,0,22.846,0,30.592,0,61.184c0,.822-.139.725.749.725q10.479-.005,20.956,0h26.6a21.712,21.712,0,0,0,4.824-.445A20.826,20.826,0,0,0,73.219,78.6a20.4,20.4,0,0,0,4.2-20.967,20.621,20.621,0,0,0-3.08-5.553,21.05,21.05,0,0,0-6.779-5.687A19.288,19.288,0,0,0,62.2,44.482c-.855-.167-1.728-.246-2.592-.365a.691.691,0,0,1-.214-.036,4.518,4.518,0,0,0-2.1-.291q-15.467-.008-30.934,0c-.408,0-.817-.013-1.225-.007-.312,0-.342.041-.362.355,0,.058,0,.117,0,.175q0,2.713,0,5.427c0,.058,0,.117,0,.175.012.46.023.472.465.477.1,0,.2,0,.306,0q16.386.011,32.772.018A13.958,13.958,0,0,1,66,52.794a13.517,13.517,0,0,1,5.095,6.02,14.288,14.288,0,0,1-.943,13.474A14.181,14.181,0,0,1,66.085,76.5a16.923,16.923,0,0,1-2.077,1.108,11.155,11.155,0,0,1-3.386,1.119,19.171,19.171,0,0,1-2.434.222c-6.8.018-13.593.009-20.389.011q-10.762,0-21.524.01c-.892,0-.818.1-.818-.821q.005-8.337,0-16.674,0-29.519,0-59.039c0-.685.005-1.371.009-2.056,0-.375,0-.377.39-.38.335,0,.671,0,1.006,0Q34.5,0,52.13.011A28.392,28.392,0,0,1,58.6.686,32.738,32.738,0,0,1,66.232,3.5a29.059,29.059,0,0,1,9.224,7.438,30.56,30.56,0,0,1,4.948,8.4,31.045,31.045,0,0,1,1.724,6.578,30.1,30.1,0,0,1,.237,6.937,27.9,27.9,0,0,1-1.08,5.831,31.007,31.007,0,0,1-1.414,3.939.844.844,0,0,0,.19,1.117,24.113,24.113,0,0,1,2.794,3.411,26.852,26.852,0,0,1,2.492,4.2,30.146,30.146,0,0,1,2.215,6.24,22.034,22.034,0,0,1,.66,5.668c-.028,1.123-.026,2.247,0,3.37a20.481,20.481,0,0,1-.618,4.886,29.294,29.294,0,0,1-1.5,4.739c-.341.834-.754,1.639-1.158,2.445a28.433,28.433,0,0,1-3.783,5.649,31.058,31.058,0,0,1-3.9,3.822A27.573,27.573,0,0,1,71.23,92a41.345,41.345,0,0,1-4.337,1.719A22.811,22.811,0,0,1,61.286,94.8c-.77.053-1.542.086-2.314.086q-29.14.007-58.28,0C0,94.894,0,94.894,0,94.2V47.414ZM39.569,9.727v0H25.219c-.433,0-.446,0-.446.437q-.005,2.6,0,5.208c0,.859-.11.739.741.739q13.825,0,27.652.009a7.409,7.409,0,0,1,1.344.147,15.174,15.174,0,0,1,5.7,2.325,14.083,14.083,0,0,1,6.113,10.248,13.3,13.3,0,0,1-.406,5.2c-.089.307-.143.623-.206.937a.307.307,0,0,0,.258.388c.321.092.643.181.963.28A33.521,33.521,0,0,1,71.2,37.292c.339.159.358.168.464-.2.148-.518.28-1.041.418-1.562a20.579,20.579,0,0,0-2.312-15.782,20.783,20.783,0,0,0-15.677-9.91c-1-.1-2.009-.1-3.015-.1-3.836-.011-7.671,0-11.507,0m2.438,59.611h2.318c4.549,0,9.1-.005,13.646.022a4.433,4.433,0,0,0,1.892-.366,4.68,4.68,0,0,0,2.014-7.025,5.143,5.143,0,0,0-3-1.976,4.933,4.933,0,0,0-1.39-.1q-8.354-.008-16.708,0-7.72,0-15.44-.012c-.567,0-.569,0-.569.547q0,4.266,0,8.531c0,.42.033.449.444.436.6-.019,1.194-.053,1.791-.054q7.5-.007,15,0M39.747,34.3h0q3.631,0,7.262,0c2.421,0,4.842-.008,7.262,0a1.2,1.2,0,0,0,.834-.308A4.8,4.8,0,0,0,56.7,31.3a4.689,4.689,0,0,0-3.386-5.461,7.352,7.352,0,0,0-2.038-.2L25.163,25.63c-.36,0-.39.022-.39.4q0,3.916,0,7.833c0,.429.013.434.45.434H39.747" transform="translate(0 0)" fill="#adadad"/>
  </g>
</svg>
