<svg id="Group_4690" data-name="Group 4690" xmlns="http://www.w3.org/2000/svg" width="171.516" height="72.144" viewBox="0 0 171.516 72.144">
  <g id="Group_4689" data-name="Group 4689" transform="translate(76.316)">
    <path id="Path_46589" data-name="Path 46589" d="M122.777,20.115,104.335,16.1V0c.225.12.43.213.618.33q7.148,4.426,14.291,8.855c1.04.645,2.076,1.3,3.125,1.926a.892.892,0,0,1,.487.858c-.012,2.555-.005,5.11-.01,7.665a4.071,4.071,0,0,1-.07.48" transform="translate(-104.335)" fill="#adadad"/>
    <path id="Path_46590" data-name="Path 46590" d="M104.381,35.068c-.019-.357-.042-.595-.042-.832q0-7.021,0-14.043c0-.164,0-.327,0-.49a.458.458,0,0,1,.431-.5,7.867,7.867,0,0,1,.894-.09c3.161-.074,6.322-.132,9.482-.21,2.1-.052,4.194-.135,6.29-.188,1.282-.033,1.284-.019,1.284,1.225,0,2.177-.012,4.354.01,6.532a1.018,1.018,0,0,1-.712,1.108c-5.618,2.372-11.223,4.777-16.833,7.172-.222.1-.45.179-.806.319" transform="translate(-104.333 6.812)" fill="#adadad"/>
  </g>
  <path id="Path_46591" data-name="Path 46591" d="M14.443,57.59c0-1.3.015-2.494,0-3.687-.03-1.917.292-1.416-1.438-2.1-.228-.09-.452-.192-.686-.262a.65.65,0,0,1-.525-.914,65.415,65.415,0,0,1,8.2-.068c.177.709.175.724-.42.967-.678.278-1.361.547-2.131.854-.012.956-.029,1.93-.035,2.9s0,1.955,0,3.041c-.664.18-1.336.381-2.018.54a20.144,20.144,0,0,1-7.3.464,8.409,8.409,0,0,1-7.245-5.8A12.514,12.514,0,0,1,1.6,42.869a9.286,9.286,0,0,1,6.609-4.764,20.882,20.882,0,0,1,9.155.375,2.7,2.7,0,0,1,.338.143V43.2c-.2.027-.383.067-.565.072s-.375-.02-.625-.038l-1.023-2.824c-.371-1.023-.368-1.053-1.461-1.16a14.332,14.332,0,0,0-4.952.322,7.276,7.276,0,0,0-5.165,5.019,12.164,12.164,0,0,0-.083,8.1,6.947,6.947,0,0,0,6.419,4.989,20.42,20.42,0,0,0,4.194-.089" transform="translate(0 12.667)" fill="#adadad"/>
  <path id="Path_46594" data-name="Path 46594" d="M50.6,44.8c-.638-.186-1.211-.352-1.783-.52a1.66,1.66,0,0,1-.539-.177.808.808,0,0,1-.321-.484c-.011-.113.2-.322.345-.363.629-.175,1.27-.306,1.907-.45.876-.2,1.752-.4,2.629-.592a5.407,5.407,0,0,1,.623-.056v1.6c.329-.089.58-.139.819-.221.925-.322,1.838-.685,2.773-.975a4.726,4.726,0,0,1,3.21.008,3.949,3.949,0,0,1,2.707,3.556c.078,1.083.072,2.175.079,3.262.012,1.824,0,3.646,0,5.47,0,.694-.136.768.694,1.07a14.869,14.869,0,0,1,1.5.644.934.934,0,0,1,.432.438.343.343,0,0,1-.326.514c-.108.008-.217.008-.326.008q-3.354,0-6.706,0a4.312,4.312,0,0,1-.535-.064.616.616,0,0,1,.385-.936c.649-.278,1.293-.573,1.99-.883.014-.232.042-.469.042-.708q0-3.509,0-7.02a6.773,6.773,0,0,0-.031-.816,2.725,2.725,0,0,0-2.194-2.525,10.722,10.722,0,0,0-4.472.037V55.685c.578.274,1.181.581,1.8.846a.665.665,0,0,1,.423.951H48.037c-.12-.7-.124-.711.427-.944.7-.3,1.406-.573,2.135-.868Z" transform="translate(17.464 14.27)" fill="#adadad"/>
  <path id="Path_46595" data-name="Path 46595" d="M78.289,38.8v4.383h-1.14c-.4-.982-.866-1.966-1.2-2.993a1.1,1.1,0,0,0-1.191-.849,10.949,10.949,0,0,0-3.4.3,2.672,2.672,0,0,0-2.125,2.029,2.825,2.825,0,0,0,.977,3.009c.514.4,1.048.779,1.593,1.138,1.612,1.064,3.267,2.069,4.848,3.179a5.57,5.57,0,0,1,2.012,6.526,5.117,5.117,0,0,1-2.374,2.8,7.161,7.161,0,0,1-2.945.9,19.963,19.963,0,0,1-6.956-.952v-4.6h1.085c.113.256.252.543.371.839.334.832.667,1.666.986,2.5.125.33.293.574.686.592a12.548,12.548,0,0,0,3.739-.149,2.991,2.991,0,0,0,2.423-2.17,3.217,3.217,0,0,0-.986-3.49,22.254,22.254,0,0,0-1.907-1.4c-1.087-.724-2.2-1.413-3.295-2.125-.342-.222-.673-.462-1-.711a5.386,5.386,0,0,1,2.63-9.522,16.655,16.655,0,0,1,6.387.539c.259.057.513.146.78.224" transform="translate(24.176 12.717)" fill="#adadad"/>
  <path id="Path_46597" data-name="Path 46597" d="M38.553,49.513H28.7a5.292,5.292,0,0,0,3.863,6.176,11.025,11.025,0,0,0,3.738.1c.567-.06,1.132-.134,1.787-.213.059.312.115.617.18.966-.27.106-.49.2-.713.278A20.492,20.492,0,0,1,33.1,57.8a6.79,6.79,0,0,1-7.624-6.072A9.064,9.064,0,0,1,26.9,45.266a6.821,6.821,0,0,1,7.933-2.614,4.946,4.946,0,0,1,3.48,4.236c.113.825.151,1.66.236,2.625m-9.95-.936c2.3-.176,4.5-.385,6.727-.619a7.4,7.4,0,0,0-.494-2.877A2.351,2.351,0,0,0,33.5,43.733a3.236,3.236,0,0,0-3.63.934,6.989,6.989,0,0,0-1.262,3.91" transform="translate(9.245 14.307)" fill="#adadad"/>
  <path id="Path_46598" data-name="Path 46598" d="M120.166,49.507H110.157a7.483,7.483,0,0,0,.966,4.061,4.7,4.7,0,0,0,3.953,2.26c1.382.037,2.768-.127,4.153-.2.131-.008.261-.03.49-.057.042.347.08.652.121.992a15.37,15.37,0,0,1-3.97,1.068,12.137,12.137,0,0,1-3.086.1,6.558,6.558,0,0,1-5.694-5.877,9.712,9.712,0,0,1,.681-5.274,6.908,6.908,0,0,1,8.177-4.08,4.984,4.984,0,0,1,3.953,4.2c.156.874.171,1.773.265,2.814m-9.953-.921c2.281-.211,4.477-.366,6.689-.637a6.436,6.436,0,0,0-.432-2.812,2.439,2.439,0,0,0-2.1-1.573,3.145,3.145,0,0,0-3.269,1.656,8.127,8.127,0,0,0-.888,3.365" transform="translate(38.967 14.309)" fill="#adadad"/>
  <path id="Path_46599" data-name="Path 46599" d="M49.874,49.505h-9.8A5.474,5.474,0,0,0,42.838,55.3a5.946,5.946,0,0,0,2.28.536c1.3.03,2.6-.127,3.906-.209.131-.008.261-.033.462-.059.071.333.135.637.207.978a16.175,16.175,0,0,1-3.975,1.079,11.059,11.059,0,0,1-3,.121,6.34,6.34,0,0,1-5.533-4.657,9.021,9.021,0,0,1,.442-6.607A6.8,6.8,0,0,1,42.7,42.4a5.968,5.968,0,0,1,5.348,1.33,5.033,5.033,0,0,1,1.681,3.084,14.6,14.6,0,0,1,.145,2.686m-3.112-1.533a8.769,8.769,0,0,0-.494-2.835,2.428,2.428,0,0,0-1.386-1.416,3.2,3.2,0,0,0-3.454.772,6.65,6.65,0,0,0-1.411,4.1l6.745-.622" transform="translate(13.386 14.308)" fill="#adadad"/>
  <path id="Path_46600" data-name="Path 46600" d="M98.768,49.49a7.733,7.733,0,0,0,.891,3.989,4.708,4.708,0,0,0,4.067,2.344c1.352.056,2.712-.116,4.069-.188.132-.008.263-.034.5-.065.061.33.117.63.187,1a14.66,14.66,0,0,1-1.5.487,28.882,28.882,0,0,1-3.923.731,6.72,6.72,0,0,1-7.4-6.4,9.31,9.31,0,0,1,1-5.371,6.861,6.861,0,0,1,8.33-3.394,4.927,4.927,0,0,1,3.513,4.028c.155.9.186,1.817.282,2.833Zm6.739-1.52a6.237,6.237,0,0,0-.533-3.03,2.338,2.338,0,0,0-1.887-1.379,3.218,3.218,0,0,0-3.453,1.761,8.254,8.254,0,0,0-.806,3.24c2.237-.117,4.408-.389,6.679-.592" transform="translate(34.819 14.308)" fill="#adadad"/>
  <path id="Path_46604" data-name="Path 46604" d="M88.41,44.845c-.648-.194-1.271-.377-1.893-.568a1.9,1.9,0,0,1-.527-.211.428.428,0,0,1,.064-.734,1.62,1.62,0,0,1,.385-.131q2.147-.5,4.3-1a4.038,4.038,0,0,1,.554-.041v1.85c.419-.194.722-.347,1.035-.475.9-.37,1.8-.761,2.728-1.082a2.951,2.951,0,0,1,2.08.071.632.632,0,0,1,.473.667c-.02.977-.007,1.954-.007,3.022a10.232,10.232,0,0,1-2.181,0c-.244-.476-.486-.9-.685-1.349a.787.787,0,0,0-.909-.517c-.8.116-1.6.247-2.464.381V55.652c.851.293,1.745.6,2.638.907.431.146.757.345.552.93H85.935c-.161-.708-.162-.712.427-.97.673-.292,1.349-.576,2.048-.873Z" transform="translate(31.251 14.271)" fill="#adadad"/>
  <path id="Path_46605" data-name="Path 46605" d="M15.659,57.49a.621.621,0,0,1,.424-.941c.711-.266,1.412-.562,2.146-.857V44.8l-1.355-.364a5.5,5.5,0,0,1-.937-.276.785.785,0,0,1-.36-.465c-.068-.258.143-.378.378-.432.476-.111.952-.224,1.43-.334,1.034-.24,2.067-.483,3.1-.715a5.026,5.026,0,0,1,.622-.053V44c.438-.2.771-.377,1.117-.518.854-.351,1.7-.718,2.577-1.019a2.97,2.97,0,0,1,2.157.078.626.626,0,0,1,.467.6c0,1,0,2,0,3.113-.716,0-1.36.022-2-.015-.142-.008-.307-.2-.4-.338a3.466,3.466,0,0,1-.407-.8.99.99,0,0,0-1.191-.733c-.749.1-1.492.241-2.273.371V55.653c.887.3,1.787.588,2.681.9.558.191.554.2.486.941Z" transform="translate(5.669 14.272)" fill="#adadad"/>
  <path id="Path_46607" data-name="Path 46607" d="M87.372,56.795c.053.265.116.57.19.932a20.564,20.564,0,0,1-5.116.944,2.7,2.7,0,0,1-2.94-2.468,8.181,8.181,0,0,1-.1-1.379c-.01-3.211-.007-6.421-.01-9.633,0-.106-.022-.213-.045-.428H77.224c-.24-.468-.2-.768.168-1a16.347,16.347,0,0,0,3.822-3.533.717.717,0,0,1,.959-.206v3.214c1.7.124,3.325.011,4.993.08v1.415h-4.9c-.025.286-.053.472-.053.658q0,4.082.007,8.166c0,.488.02.979.064,1.467a1.764,1.764,0,0,0,1.869,1.854c1.027.04,2.059-.046,3.224-.08" transform="translate(28.069 13.456)" fill="#adadad"/>
  <path id="Path_46608" data-name="Path 46608" d="M123.173,40.007v3.258h4.97v1.42h-4.937c-.02.351-.045.589-.045.828q0,4.244.012,8.487a7.792,7.792,0,0,0,.109,1.3,1.645,1.645,0,0,0,1.694,1.565c.891.048,1.79-.045,2.686-.083.187-.008.372-.048.643-.083.076.321.147.621.228.967a5.529,5.529,0,0,1-.57.2c-1.116.246-2.23.5-3.352.712a6.183,6.183,0,0,1-1.22.094,2.79,2.79,0,0,1-2.989-2.8c-.031-.407-.02-.816-.02-1.224q0-4.488,0-8.976c0-.269,0-.536,0-.918-.674,0-1.285.005-1.895-.023-.165-.008-.453-.12-.462-.207a1.516,1.516,0,0,1,.149-.663c.031-.083.177-.116.261-.184.937-.784,1.885-1.557,2.8-2.364a7.234,7.234,0,0,0,.91-1.044.791.791,0,0,1,1.026-.265" transform="translate(42.983 13.457)" fill="#adadad"/>
</svg>
