<svg xmlns="http://www.w3.org/2000/svg" width="215.787" height="62.578" viewBox="0 0 215.787 62.578"><defs><style>.a{fill:#fff;}</style></defs><g transform="translate(0 0)"><path class="a" d="M323.171,59.672a4.276,4.276,0,0,1-.893,2.967,3.289,3.289,0,0,1-2.568.971q-3.45-.005-3.45-3.938V52.78H314.51v6.959a5.527,5.527,0,0,0,1.365,4.022,5.9,5.9,0,0,0,7.625.008,5.5,5.5,0,0,0,1.362-4.03V52.78h-1.7Z" transform="translate(-229.676 -38.543)"/><path class="a" d="M384.057,61.908l-7.345-9.128H375.28V65.021h1.748V55.893l7.345,9.128h1.435V52.78h-1.751Z" transform="translate(-274.054 -38.543)"/><path class="a" d="M437.382,54.4a4.99,4.99,0,0,1,2.463-.62,4.585,4.585,0,0,1,3.447,1.448l1.136-1.1A5.37,5.37,0,0,0,442.4,52.7a6.927,6.927,0,0,0-2.622-.483,6.805,6.805,0,0,0-3.323.809,5.969,5.969,0,0,0-2.325,2.239,6.555,6.555,0,0,0,0,6.417,5.958,5.958,0,0,0,2.32,2.252,6.743,6.743,0,0,0,3.312.809,6.875,6.875,0,0,0,2.622-.486,5.424,5.424,0,0,0,2.039-1.432l-1.136-1.1a4.585,4.585,0,0,1-3.447,1.467,4.993,4.993,0,0,1-2.463-.612,4.4,4.4,0,0,1-1.721-1.686,4.952,4.952,0,0,1,0-4.809A4.407,4.407,0,0,1,437.382,54.4Z" transform="translate(-316.417 -38.132)"/><path class="a" d="M498.105,63.966a5.934,5.934,0,0,0,2.325-2.236,6.554,6.554,0,0,0,0-6.417,5.969,5.969,0,0,0-2.325-2.239,7.218,7.218,0,0,0-6.662,0,5.991,5.991,0,0,0-2.333,2.247,6.447,6.447,0,0,0,0,6.4,5.956,5.956,0,0,0,2.333,2.247A7.218,7.218,0,0,0,498.105,63.966Zm-7.474-3.04a4.971,4.971,0,0,1,0-4.809,4.459,4.459,0,0,1,1.713-1.689,4.906,4.906,0,0,1,2.428-.61,4.815,4.815,0,0,1,2.428.61,4.491,4.491,0,0,1,1.7,1.689,4.971,4.971,0,0,1,0,4.809,4.486,4.486,0,0,1-1.7,1.686,4.817,4.817,0,0,1-2.428.612,4.906,4.906,0,0,1-2.428-.612A4.453,4.453,0,0,1,490.631,60.926Z" transform="translate(-356.56 -38.164)"/><path class="a" d="M567.054,52.78l-5.036,8.6-5.106-8.6H555.48V65.021h1.678V56.154l4.424,7.38h.807l4.421-7.431.019,8.917h1.678l-.016-12.241Z" transform="translate(-405.649 -38.543)"/><path class="a" d="M638.044,52.78l-5.036,8.6-5.106-8.6H626.47V65.021h1.678V56.154l4.424,7.38h.8L637.8,56.1l.019,8.917H639.5l-.016-12.241Z" transform="translate(-457.49 -38.543)"/><path class="a" d="M703.592,53.074a7.218,7.218,0,0,0-6.662,0,6,6,0,0,0-2.331,2.247,6.446,6.446,0,0,0,0,6.4,5.966,5.966,0,0,0,2.331,2.247,7.218,7.218,0,0,0,6.662,0,5.951,5.951,0,0,0,2.328-2.236,6.554,6.554,0,0,0,0-6.417,5.977,5.977,0,0,0-2.328-2.239Zm.809,7.852a4.524,4.524,0,0,1-1.7,1.686,4.817,4.817,0,0,1-2.428.612,4.917,4.917,0,0,1-2.427-.612,4.445,4.445,0,0,1-1.71-1.686,4.953,4.953,0,0,1,0-4.809,4.453,4.453,0,0,1,1.71-1.689,4.917,4.917,0,0,1,2.428-.61,4.815,4.815,0,0,1,2.428.61,4.532,4.532,0,0,1,1.7,1.689A4.99,4.99,0,0,1,704.4,60.926Z" transform="translate(-506.622 -38.164)"/><path class="a" d="M771.5,52.78h-1.751v9.128L762.4,52.78H760.97V65.021h1.748V55.893l7.345,9.128H771.5Z" transform="translate(-555.711 -38.543)"/><path class="a" d="M315.351,152.127a4.985,4.985,0,0,1,2.463-.61,4.585,4.585,0,0,1,3.447,1.448l1.136-1.1a5.37,5.37,0,0,0-2.028-1.424,6.929,6.929,0,0,0-2.624-.483,6.8,6.8,0,0,0-3.31.82,5.969,5.969,0,0,0-2.325,2.239,6.554,6.554,0,0,0,0,6.417,5.958,5.958,0,0,0,2.317,2.236,6.743,6.743,0,0,0,3.312.809,6.875,6.875,0,0,0,2.63-.491,5.424,5.424,0,0,0,2.039-1.432l-1.136-1.1a4.585,4.585,0,0,1-3.447,1.467,4.985,4.985,0,0,1-2.463-.612,4.4,4.4,0,0,1-1.721-1.686,4.952,4.952,0,0,1,0-4.809A4.391,4.391,0,0,1,315.351,152.127Z" transform="translate(-227.31 -109.509)"/><path class="a" d="M368.44,150.51l-5.54,12.241h1.8l1.349-3.059h6.506l1.349,3.059h1.837l-5.562-12.241Zm-1.783,7.782,2.638-6,2.643,6Z" transform="translate(-265.014 -109.912)"/><path class="a" d="M431.074,150.51H426.3v12.241h1.748v-3.706h3.026a5.675,5.675,0,0,0,3.741-1.136,3.81,3.81,0,0,0,1.349-3.132,3.876,3.876,0,0,0-1.349-3.129A5.626,5.626,0,0,0,431.074,150.51Zm2.482,6.306a3.973,3.973,0,0,1-2.535.707h-2.967v-5.492h2.967a3.934,3.934,0,0,1,2.535.709,2.808,2.808,0,0,1,0,4.076Z" transform="translate(-311.313 -109.912)"/><rect class="a" width="1.748" height="12.24" transform="translate(129.882 40.598)"/><path class="a" d="M504.14,152.031h4.2v10.719h1.729V152.031h4.2V150.51H504.14Z" transform="translate(-368.157 -109.912)"/><path class="a" d="M554.213,150.51l-5.543,12.241h1.8l1.349-3.059h6.506l1.349,3.059h1.834L555.95,150.51Zm-1.783,7.782,2.638-6,2.641,6Z" transform="translate(-400.675 -109.912)"/><path class="a" d="M613.808,150.51H612.06v12.241h8.375v-1.521h-6.627Z" transform="translate(-446.967 -109.912)"/><path class="a" d="M9.1,23.256c.882-6.136,2.967-12.335,6.2-15.52,4.076-3.989,9.727-6.074,16.26-6.074,6.608,0,12.246,1.988,16.332,6.074,3.188,3.188,5.279,9.379,6.177,15.5a41,41,0,0,1,9.125,7.137v-.043c0-9.9-3.48-16.076-9.557-21.9A31.41,31.41,0,0,0,31.559,0c-8.618,0-16.524,2.967-22,8.437C3.563,14.428,0,20.43,0,30.334v.043a40.846,40.846,0,0,1,9.1-7.121Z" transform="translate(0 0)"/><path class="a" d="M15.4,146.309a31.319,31.319,0,0,0,22,8.429c8.694,0,16.6-2.967,22.078-8.437,4.329-4.337,7.175-8.186,7.364-12.445a29.4,29.4,0,0,0-6.474-7.655c-.313,7.439-2.525,16.856-6.63,20.8-4.086,3.992-9.71,6.077-16.332,6.077-6.522,0-12.173-2.085-16.26-6.077s-6.312-13.365-6.627-20.794A29.4,29.4,0,0,0,8,133.912C8.213,138.136,11.013,142.112,15.4,146.309Z" transform="translate(-5.842 -92.16)"/></g></svg>