<svg xmlns="http://www.w3.org/2000/svg" width="60" height="60" viewBox="0 0 60 60"><defs><style>.a{fill:#096162;}.b{fill:#fff;}</style></defs><g transform="translate(-1741 -246)"><rect class="a" width="60" height="60" rx="12" transform="translate(1741 246)"/><g transform="translate(0 -2)"><path class="b" d="M24.428,14.337v9.031H19.192V14.942c0-2.117-.758-3.562-2.652-3.562A2.865,2.865,0,0,0,13.853,13.3a3.578,3.578,0,0,0-.174,1.277v8.8H8.441s.071-14.271,0-15.75H13.68V9.85l-.034.051h.034V9.85a5.2,5.2,0,0,1,4.719-2.6C21.844,7.248,24.428,9.5,24.428,14.337ZM2.963.026a2.729,2.729,0,1,0-.069,5.443h.034A2.73,2.73,0,1,0,2.964.026ZM.311,23.368H5.547V7.618H.311Z" transform="translate(1759 263.704)"/></g></g></svg>