<svg xmlns="http://www.w3.org/2000/svg" width="96.009" height="29.669" viewBox="0 0 96.009 29.669"><defs><style>.a{fill:#fff;}</style></defs><path class="a" d="M-433.176-470.191a8.2,8.2,0,0,1-8.544,8.43,8.189,8.189,0,0,1-8.533-8.43,8.192,8.192,0,0,1,8.538-8.43A8.192,8.192,0,0,1-433.176-470.191Zm-13.712,0a5.022,5.022,0,0,0,5.142,5.316,5.022,5.022,0,0,0,5.142-5.316,5.018,5.018,0,0,0-5.142-5.319,5,5,0,0,0-5.125,5.319Z" transform="translate(450.253 478.624)"/><path class="a" d="M-363.617-477.571c3.876,0,5.956,1.834,5.956,4.948,0,2.671-1.857,4.494-4.982,4.8l5.025,6.513h-3.936l-4.736-6.467h-.951v6.467h-3.231v-16.257Zm-3.625,2.985v3.982h3.576c1.765,0,2.682-.651,2.682-2.02s-.963-1.962-2.682-1.962Z" transform="translate(393.263 477.874)"/><path class="a" d="M-303.844-461.314h-3.239v-16.257h3.239v16.257Z" transform="translate(347.981 477.874)"/><path class="a" d="M-262.326-476.143l-2.334,2.285a5.054,5.054,0,0,0-3.925-1.714,5.045,5.045,0,0,0-5.142,5.353,5.038,5.038,0,0,0,5.073,5.4c2.648,0,4.191-1.277,4.622-3.588h-4.113v-2.685h7.476a8.179,8.179,0,0,1,.046.917c0,4.922-3.334,8.393-7.941,8.393a8.2,8.2,0,0,1-8.5-8.418,8.2,8.2,0,0,1,8.57-8.43A8.192,8.192,0,0,1-262.326-476.143Z" transform="translate(326.537 478.631)"/><path class="a" d="M-196.222-461.334h-3.251v-16.257h3.239v16.254Z" transform="translate(271.111 477.888)"/><path class="a" d="M-151.8-461.314h-3.031l-8.244-10.855v10.855h-3.251v-16.257h3.031l8.256,10.855v-10.855h3.239v16.257Z" transform="translate(247.431 477.874)"/><path class="a" d="M-442.5-393.308h-1.168v-7.233h1.168v7.233Z" transform="translate(445.553 422.848)"/><path class="a" d="M-419.214-393.308h-1.054l-4.034-5.233v5.233h-1.171v-7.233h1.054l4.039,5.233v-5.233h1.168v7.233Z" transform="translate(432.552 422.848)"/><path class="a" d="M-389.157-393.308h-1.457l-2.759-7.233h1.245l2.254,6.05,2.268-6.05h1.208Z" transform="translate(409.621 422.848)"/><path class="a" d="M-353.48-393.308h-5.273v-7.233h5.208v1.094h-4.042v1.94h3.9v1.094h-3.9v2h4.108v1.105Z" transform="translate(384.891 422.848)"/><path class="a" d="M-323.163-399.258a4.238,4.238,0,0,0-.971-.457,3.431,3.431,0,0,0-1.06-.163,2.73,2.73,0,0,0-.66.074,1.659,1.659,0,0,0-.514.217,1.067,1.067,0,0,0-.334.329.859.859,0,0,0-.12.446.7.7,0,0,0,.1.389.838.838,0,0,0,.286.271,1.91,1.91,0,0,0,.471.183,5.93,5.93,0,0,0,.631.123l.5.069a5.5,5.5,0,0,1,.857.191,2.612,2.612,0,0,1,.746.363,1.783,1.783,0,0,1,.526.571,1.715,1.715,0,0,1,.2.857,2,2,0,0,1-.231.977,2.156,2.156,0,0,1-.631.714,2.9,2.9,0,0,1-.923.44,4.034,4.034,0,0,1-1.114.151,4.9,4.9,0,0,1-.763-.063,5.294,5.294,0,0,1-.78-.183,4.639,4.639,0,0,1-.737-.3,3.138,3.138,0,0,1-.631-.423l.634-.931a2.319,2.319,0,0,0,.446.314,3.841,3.841,0,0,0,.571.254,3.882,3.882,0,0,0,.623.169,3.509,3.509,0,0,0,.637.06,2.906,2.906,0,0,0,.663-.071,1.819,1.819,0,0,0,.534-.211,1.142,1.142,0,0,0,.36-.34.786.786,0,0,0,.131-.446.7.7,0,0,0-.417-.646,3.717,3.717,0,0,0-1.211-.331l-.571-.077a4.367,4.367,0,0,1-.788-.186,2.3,2.3,0,0,1-.688-.363,1.762,1.762,0,0,1-.486-.588,1.848,1.848,0,0,1-.183-.857,2.019,2.019,0,0,1,.226-.963,2.1,2.1,0,0,1,.611-.708,2.826,2.826,0,0,1,.906-.437,4,4,0,0,1,1.108-.149,4.574,4.574,0,0,1,1.428.209,4.938,4.938,0,0,1,1.186.571Z" transform="translate(363.147 423.171)"/><path class="a" d="M-293.1-399.435h-2.342v6.127h-1.168v-6.127h-2.34v-1.106h5.85Z" transform="translate(342.174 422.848)"/><path class="a" d="M-260.367-393.315h-1.168v-5.953l-2.114,5.245h-1.231l-2.114-5.188v5.9h-1.168v-7.233h1.794l2.117,5.165,2.1-5.168h1.794v7.236Z" transform="translate(320.179 422.855)"/><path class="a" d="M-221.49-393.308h-5.273v-7.233h5.208v1.094h-4.039v1.94h3.9v1.094h-3.9v2h4.108v1.094Z" transform="translate(290.606 422.848)"/><path class="a" d="M-188.6-393.308h-1.054l-4.036-5.233v5.233h-1.168v-7.233h1.054l4.039,5.233v-5.233h1.168v7.233Z" transform="translate(267.818 422.848)"/><path class="a" d="M-156.8-399.435h-2.34v6.127h-1.183v-6.127h-2.34v-1.106h5.848v1.106Z" transform="translate(244.817 422.848)"/><path class="a" d="M-129.353-399.229a4.24,4.24,0,0,0-.971-.457,3.43,3.43,0,0,0-1.06-.163,2.727,2.727,0,0,0-.66.074,1.661,1.661,0,0,0-.514.217,1.065,1.065,0,0,0-.334.34.858.858,0,0,0-.12.446.7.7,0,0,0,.1.389.838.838,0,0,0,.286.271,1.919,1.919,0,0,0,.471.183,5.949,5.949,0,0,0,.631.123l.5.069a5.487,5.487,0,0,1,.857.191,2.612,2.612,0,0,1,.746.363,1.783,1.783,0,0,1,.526.571,1.712,1.712,0,0,1,.2.857,2,2,0,0,1-.231.977,2.156,2.156,0,0,1-.631.714,2.9,2.9,0,0,1-.923.44,4.034,4.034,0,0,1-1.114.151,4.9,4.9,0,0,1-.763-.063,5.292,5.292,0,0,1-.78-.183,4.651,4.651,0,0,1-.737-.3,3.138,3.138,0,0,1-.631-.423l.634-.931a2.32,2.32,0,0,0,.446.314,3.839,3.839,0,0,0,.571.254,3.874,3.874,0,0,0,.623.169,3.5,3.5,0,0,0,.637.06,2.9,2.9,0,0,0,.663-.071,1.817,1.817,0,0,0,.534-.211,1.143,1.143,0,0,0,.36-.34.786.786,0,0,0,.131-.446.7.7,0,0,0-.417-.646,3.715,3.715,0,0,0-1.211-.331l-.571-.077a4.368,4.368,0,0,1-.788-.186,2.3,2.3,0,0,1-.688-.363,1.763,1.763,0,0,1-.486-.588,1.848,1.848,0,0,1-.183-.857,2.019,2.019,0,0,1,.226-.963,2.106,2.106,0,0,1,.611-.708,2.825,2.825,0,0,1,.906-.437,4,4,0,0,1,1.108-.149,4.575,4.575,0,0,1,1.428.208,4.938,4.938,0,0,1,1.186.571Z" transform="translate(224.701 423.142)"/></svg>