<svg id="Group_4692" data-name="Group 4692" xmlns="http://www.w3.org/2000/svg" xmlns:xlink="http://www.w3.org/1999/xlink" width="199.128" height="79.105" viewBox="0 0 199.128 79.105">
  <defs>
    <clipPath id="clip-path">
      <rect id="Rectangle_21862" data-name="Rectangle 21862" width="199.128" height="79.105" fill="#adadad"/>
    </clipPath>
  </defs>
  <g id="Group_4691" data-name="Group 4691" clip-path="url(#clip-path)">
    <path id="Path_46609" data-name="Path 46609" d="M0,82.317c.008-.22.022-.438.022-.658q0-33.42-.008-66.841A1.813,1.813,0,0,1,.6,13.4c1.49-1.448,2.943-2.935,4.416-4.4a3.516,3.516,0,0,1,.461-.333L5.47,8.657c0,1.448-.011,2.9-.011,4.343q0,31.423,0,62.847c0,1.033,0,1.029,1.059,1.029q22.673,0,45.346.013c.421,0,.54-.116.54-.535-.013-5.461-.007-10.922-.014-16.384,0-.3.079-.4.4-.4,1.562.016,3.125.014,4.688,0,.269,0,.36.074.359.348-.007,3.779,0,7.558-.012,11.336a.731.731,0,0,1-.192.469q-2.424,2.437-4.869,4.852-2.762,2.74-5.525,5.479c-.06.059-.064.173-.094.262Z" transform="translate(0 -3.212)" fill="#adadad"/>
    <path id="Path_46610" data-name="Path 46610" d="M314.7,77.985a1.454,1.454,0,0,1-.962.61,1.4,1.4,0,0,1-1.474-1.8,1.424,1.424,0,0,1,1.919-.864,1.369,1.369,0,0,1,.518,2.049m-1.017-1.862c-.792.008-1.25.4-1.238,1.057a1.354,1.354,0,0,0,1.121,1.164,1.24,1.24,0,0,0,1.213-1.153,1.086,1.086,0,0,0-1.1-1.068" transform="translate(-115.843 -28.128)" fill="#adadad"/>
    <path id="Path_46611" data-name="Path 46611" d="M20.613,51.163c0-4.275.006-8.551-.009-12.826,0-.4.094-.531.5-.489a12.463,12.463,0,0,0,1.255.018c3.554,0,7.108.01,10.663,0a11.191,11.191,0,0,1,6.529,1.748A7.7,7.7,0,0,1,42.819,45a10.4,10.4,0,0,1-.3,4.7,6.786,6.786,0,0,1-2.986,4.022c-.643.4-1.312.759-1.983,1.109-.224.118-.307.214-.131.423a11.044,11.044,0,0,1,.752.9c.311.462.549.973.862,1.434,1.155,1.7,2.327,3.383,3.5,5.071.338.489.693.969,1.02,1.465.124.189.242.4-.191.4-2.019-.021-4.039-.006-6.057-.041a.987.987,0,0,1-.687-.377c-1.759-2.567-3.484-5.156-5.244-7.722a1.014,1.014,0,0,0-.7-.379c-1.243-.04-2.488-.012-3.732-.034-.308-.006-.4.065-.4.382.013,2.179.007,4.359.007,6.538,0,.442.021.885-.015,1.325a.436.436,0,0,1-.305.294c-1.771.012-3.54-.01-5.311,0-.379,0-.3-.224-.3-.43q0-6.455,0-12.91m5.93-4.173v.248c0,1.1-.007,2.206.009,3.308,0,.111.138.309.219.313.207.01.418-.1.628-.1,1.948-.022,3.9,0,5.844-.055a3.945,3.945,0,0,0,2.655-1.17,3.511,3.511,0,0,0,.994-2.86,3.268,3.268,0,0,0-1.6-2.8,5.14,5.14,0,0,0-2.725-.717c-1.893-.041-3.786-.008-5.679-.02-.274,0-.348.076-.345.346.014,1.172.006,2.343.006,3.515" transform="translate(-7.645 -14.04)" fill="#adadad"/>
    <path id="Path_46612" data-name="Path 46612" d="M59.939,51.137c0-4.261.006-8.522-.009-12.784,0-.426.107-.56.552-.557q9.147.039,18.293.044c.4,0,.8,0,1.191.035a.359.359,0,0,1,.245.249q.025,2.338,0,4.674a.427.427,0,0,1-.305.285q-6.762,0-13.523-.037c-.382,0-.516.115-.514.487.006,1.531-.01,3.062.009,4.591a.472.472,0,0,0,.329.322c.9.018,1.79-.01,2.685-.015,2.973-.014,5.946-.021,8.919-.042.461,0,.708.072.687.643-.05,1.35-.035,2.7-.007,4.054.009.454-.084.593-.584.589-3.291-.026-6.582-.008-9.873-.006q-.892,0-1.784-.026c-.276-.009-.392.079-.391.377q.016,2.441-.006,4.883c0,.305.13.325.372.325,4.563-.008,9.126,0,13.69-.019.381,0,.492.1.486.477q-.034,2.15-.007,4.3c0,.362-.078.5-.477.5q-9.79-.019-19.581,0c-.4,0-.406-.187-.406-.481q.008-6.433,0-12.867Z" transform="translate(-22.237 -14.024)" fill="#adadad"/>
    <path id="Path_46613" data-name="Path 46613" d="M8.706,5.453a1.215,1.215,0,0,1,.166-.308c1.64-1.641,3.278-3.282,4.937-4.9a1.031,1.031,0,0,1,.664-.224Q22.562,0,30.653.009H59.447c.4,0,.806.021,1.206-.006.382-.026.387.194.386.466-.008,2.51-.019,5.02-.016,7.53q.007,4.572.04,9.144c0,.29-.07.376-.365.374-1.562-.014-3.125-.018-4.688,0-.338,0-.4-.1-.4-.418.014-3.7.006-7.392.025-11.088,0-.461-.148-.581-.592-.58q-22.716.011-45.431,0c-.3,0-.608.006-.911.009l.008.008" transform="translate(-3.227 0)" fill="#adadad"/>
    <path id="Path_46614" data-name="Path 46614" d="M127.85,47.057a11.768,11.768,0,0,1,4.74,1,10.492,10.492,0,0,1,3.339,2.281,9.9,9.9,0,0,1,2.61,4.608,10.992,10.992,0,0,1-1.19,8.4,10.2,10.2,0,0,1-3.023,3.071,11.05,11.05,0,0,1-4.332,1.8,14.788,14.788,0,0,1-3.354.106,10.434,10.434,0,0,1-4.573-1.268,10.122,10.122,0,0,1-3.527-3.233,10.633,10.633,0,0,1,6.229-16.36,13.473,13.473,0,0,1,1.511-.3c.52-.068,1.046-.078,1.569-.113m-.108,16.252c3.344-.016,5.368-2.275,5.328-6.031a5.413,5.413,0,0,0-5.35-5.166c-2.966.018-5.56,2.418-5.247,6.344.185,2.316,2.516,5.043,5.269,4.854" transform="translate(-43.283 -17.46)" fill="#adadad"/>
    <path id="Path_46615" data-name="Path 46615" d="M252.9,66.088a21.215,21.215,0,0,1-2.48,1.583,8.457,8.457,0,0,1-4.746.7,6.652,6.652,0,0,1-5-2.763,6.578,6.578,0,0,1,.727-8,7.359,7.359,0,0,1,4.257-1.888,15.023,15.023,0,0,1,6.625.44.516.516,0,0,0,.614-.577,3.538,3.538,0,0,0-1.006-2.087,4.157,4.157,0,0,0-.84-.6,4.785,4.785,0,0,0-2.282-.51,14.437,14.437,0,0,0-5,.758c-.287.1-.7.343-.838.238-.216-.16-.253-.565-.357-.869-.37-1.072-.747-2.142-1.087-3.223a.512.512,0,0,1,.25-.433c1.12-.383,2.24-.772,3.383-1.078a16.569,16.569,0,0,1,4.839-.414,9.506,9.506,0,0,1,5.99,1.905,6.929,6.929,0,0,1,2.411,4.491,25.883,25.883,0,0,1,.261,3.627c.034,3.406.009,6.813.02,10.22,0,.327-.056.462-.428.448-.856-.031-1.715-.02-2.572-.007-.742.011-1.486.028-2.225.083-.438.033-.547-.131-.52-.539.033-.521.008-1.046.008-1.5m-3.557-7.112c-.8.172-1.486.27-2.14.475a2.37,2.37,0,0,0-1.86,2.342,2.505,2.505,0,0,0,1.784,2.34,5.145,5.145,0,0,0,4.688-.8,3.624,3.624,0,0,0,1.19-2.961c-.02-.467-.177-.682-.585-.768-1.048-.22-2.1-.429-3.076-.628" transform="translate(-88.919 -17.566)" fill="#adadad"/>
    <path id="Path_46616" data-name="Path 46616" d="M214.061,50.194a18.114,18.114,0,0,1,2.447-2.121,6.554,6.554,0,0,1,2.65-.842,7.644,7.644,0,0,1,3.85.413,6.3,6.3,0,0,1,3.4,3.537,7.923,7.923,0,0,1,.57,3.052c.049,4.408.06,8.816.1,13.224,0,.426-.124.53-.54.524-1.632-.023-3.264-.015-4.9,0-.347,0-.475-.065-.471-.449q.055-4.941.062-9.881a7.6,7.6,0,0,0-.466-3.217c-.852-1.881-2.578-2.247-4.354-1.791a2.835,2.835,0,0,0-2.026,2.175,6.946,6.946,0,0,0-.262,1.894c-.021,3.6-.01,7.2.006,10.8,0,.359-.085.471-.458.467q-2.53-.027-5.061,0c-.418.005-.565-.095-.562-.549q.065-9.3.091-18.609c0-.351-.072-.7-.06-1.053,0-.117.166-.327.258-.328,1.188-.015,2.375,0,3.563.008.682.007,1.366.019,2.048.052.06,0,.16.183.158.279-.016.738-.055,1.475-.082,2.213a.95.95,0,0,0,.028.2" transform="translate(-77.199 -17.499)" fill="#adadad"/>
    <path id="Path_46617" data-name="Path 46617" d="M166.747,65.3a17.542,17.542,0,0,1-1.465,1.491c-.5.4-1.1.672-1.636,1.023a6.484,6.484,0,0,1-3.924.714,4.687,4.687,0,0,1-1.876-.57,7.335,7.335,0,0,1-2.284-1.454,6,6,0,0,1-1.5-3.113,27.831,27.831,0,0,1-.325-3.571c-.016-3.966.034-7.932.077-11.9a.458.458,0,0,1,.326-.307q2.613-.031,5.228,0a.456.456,0,0,1,.308.321q.028,4.179.014,8.359c0,1-.111,2.005-.067,3,.066,1.478.475,2.9,1.933,3.555,1.934.87,4.6.209,5.019-2.39a11.751,11.751,0,0,0,.163-1.823q.022-5.317,0-10.634c0-.353.135-.408.438-.406,1.6.009,3.21.033,4.813-.016.57-.017.664.163.662.682q-.025,9.351-.008,18.7c0,1.155,0,1.154-1.133,1.155l-2.533.005c-.617,0-1.235-.014-1.851.009-.32.012-.4-.107-.39-.406.019-.759.006-1.518.006-2.43" transform="translate(-57.044 -17.656)" fill="#adadad"/>
    <path id="Path_46618" data-name="Path 46618" d="M292.747,47.186a14.569,14.569,0,0,1,7.607,2.212c.227.145.284.247.154.479q-.945,1.7-1.872,3.4c-.15.277-.288.286-.586.159a33.337,33.337,0,0,0-3.871-1.513,5.911,5.911,0,0,0-2.332.018A1.168,1.168,0,0,0,290.8,53.01a1.238,1.238,0,0,0,.855,1.283c1.279.548,2.6,1,3.888,1.528a22.454,22.454,0,0,1,2.9,1.34,5.121,5.121,0,0,1,2.661,4.874,6.075,6.075,0,0,1-2.838,5.166,7.415,7.415,0,0,1-3.027,1.012,8.946,8.946,0,0,1-2.043.151,23.544,23.544,0,0,1-3.354-.443,13.884,13.884,0,0,1-5.218-2.417.5.5,0,0,1-.064-.481c.429-.7.894-1.383,1.352-2.067.3-.447.595-.9.92-1.324a.379.379,0,0,1,.367-.045,12.169,12.169,0,0,0,5.372,2.192,4.048,4.048,0,0,0,2.41-.288,1.159,1.159,0,0,0,.128-2.168,21.11,21.11,0,0,0-3.17-1.274A15.835,15.835,0,0,1,287.8,58.31a5.212,5.212,0,0,1-2.228-3.252,6.169,6.169,0,0,1,.944-4.913,6.419,6.419,0,0,1,4.145-2.664c.786-.173,1.6-.229,2.083-.295" transform="translate(-105.572 -17.508)" fill="#adadad"/>
    <path id="Path_46619" data-name="Path 46619" d="M108.822,54.712q0,3.289,0,6.577c0,1.84.027,3.68-.018,5.518a19.488,19.488,0,0,1-.281,3.292,5.031,5.031,0,0,1-4.005,3.987,13.968,13.968,0,0,1-4.452.15.609.609,0,0,1-.383-.447c-.048-1.279-.043-2.56-.077-3.84-.008-.287.1-.336.349-.34a6.771,6.771,0,0,0,1.669-.1,1.625,1.625,0,0,0,1.225-1.735q0-9.413,0-18.825c0-1.339-.006-1.338,1.317-1.337,1.41,0,2.82.011,4.23-.013.366-.006.437.125.436.45-.011,2.22-.006,4.44-.006,6.659Z" transform="translate(-36.958 -17.662)" fill="#adadad"/>
    <path id="Path_46620" data-name="Path 46620" d="M279.361,49.818c0,4.467-.005,8.934.008,13.4,0,.454-.121.607-.6.6-1.645-.03-3.289-.013-4.935-.007-.389,0-.559-.118-.373-.524a.834.834,0,0,0,.01-.328V36.735c0-.827,0-.828.838-.826,1.535,0,3.069.021,4.6,0,.375,0,.46.108.458.465q-.017,6.721-.008,13.442" transform="translate(-101.437 -13.324)" fill="#adadad"/>
    <path id="Path_46621" data-name="Path 46621" d="M187.349,57.774c0-3.269.007-6.537-.009-9.805,0-.4.111-.514.511-.509,1.645.023,3.291.02,4.937.009.333,0,.467.086.459.442-.023.965-.013,1.931-.008,2.9a2.368,2.368,0,0,0,.061.382,2.951,2.951,0,0,0,.243-.335,5.2,5.2,0,0,1,.769-1.406,7.2,7.2,0,0,1,2.906-2.013,8.046,8.046,0,0,1,2.327-.2.361.361,0,0,1,.24.256c.02,1.834.018,3.668.03,5.5,0,.344-.2.377-.459.355a5.338,5.338,0,0,0-3.562,1,5.1,5.1,0,0,0-2.186,3.333,22.912,22.912,0,0,0-.426,3.609c-.047,2.116.03,4.236.07,6.354.006.309-.11.367-.387.365q-2.177-.018-4.356,0c-.3,0-.6.075-.893.066-.1,0-.284-.158-.284-.244-.006-1.818.012-3.635.018-5.453.005-1.531,0-3.062,0-4.593" transform="translate(-69.507 -17.523)" fill="#adadad"/>
    <path id="Path_46622" data-name="Path 46622" d="M107.7,41.114c-.9,0-1.8-.009-2.694.006-.262,0-.36-.059-.359-.34.008-1.516-.011-3.032.006-4.547a.461.461,0,0,1,.318-.319c1.81-.018,3.621,0,5.431-.014.32,0,.39.108.387.406q-.023,2.232,0,4.465c0,.27-.074.355-.348.35-.911-.015-1.824-.006-2.736-.006" transform="translate(-38.827 -13.32)" fill="#adadad"/>
    <path id="Path_46623" data-name="Path 46623" d="M314.038,76.891a.761.761,0,0,1,.263.026c.137.038.147.135.043.213s-.242.052-.347.085c-.2.063-.339.17-.32.4.02.249.233.311.445.343a1.014,1.014,0,0,1,.323.047c.112.065-.437.16-.525.147-.372-.059-.73-.507-.52-.866a.816.816,0,0,1,.638-.394" transform="translate(-116.262 -28.529)" fill="#adadad"/>
  </g>
</svg>
