<svg xmlns="http://www.w3.org/2000/svg" width="63.193" height="62.578" viewBox="0 0 63.193 62.578"><defs><style>.a{fill:#fff;}</style></defs><g transform="translate(0 0)"><path class="a" d="M9.1,23.256c.882-6.136,2.967-12.335,6.2-15.52,4.076-3.989,9.727-6.074,16.26-6.074,6.608,0,12.246,1.988,16.332,6.074,3.188,3.188,5.279,9.379,6.177,15.5a41,41,0,0,1,9.125,7.137v-.043c0-9.9-3.48-16.076-9.557-21.9A31.41,31.41,0,0,0,31.559,0c-8.618,0-16.524,2.967-22,8.437C3.563,14.428,0,20.43,0,30.334v.043a40.846,40.846,0,0,1,9.1-7.121Z" transform="translate(0 0)"/><path class="a" d="M15.4,146.309a31.319,31.319,0,0,0,22,8.429c8.694,0,16.6-2.967,22.078-8.437,4.329-4.337,7.175-8.186,7.364-12.445a29.4,29.4,0,0,0-6.474-7.655c-.313,7.439-2.525,16.856-6.63,20.8-4.086,3.992-9.71,6.077-16.332,6.077-6.522,0-12.173-2.085-16.26-6.077s-6.312-13.365-6.627-20.794A29.4,29.4,0,0,0,8,133.912C8.213,138.136,11.013,142.112,15.4,146.309Z" transform="translate(-5.842 -92.16)"/></g></svg>