<svg xmlns="http://www.w3.org/2000/svg" width="60" height="60" viewBox="0 0 60 60"><defs><style>.a{fill:#096162;}.b{fill:#fff;}</style></defs><g transform="translate(-1741 -406)"><rect class="a" width="60" height="60" rx="12" transform="translate(1741 406)"/><path class="b" d="M25.711,53.882c.018.255.018.509.018.764,0,7.764-5.909,16.71-16.71,16.71A16.6,16.6,0,0,1,0,68.72a12.149,12.149,0,0,0,1.418.073A11.762,11.762,0,0,0,8.71,66.283,5.883,5.883,0,0,1,3.218,62.21a7.407,7.407,0,0,0,1.109.091,6.212,6.212,0,0,0,1.546-.2,5.874,5.874,0,0,1-4.709-5.764v-.073a5.915,5.915,0,0,0,2.655.745A5.882,5.882,0,0,1,2,49.155,16.694,16.694,0,0,0,14.11,55.3a6.63,6.63,0,0,1-.145-1.346,5.879,5.879,0,0,1,10.164-4.018,11.563,11.563,0,0,0,3.728-1.418,5.857,5.857,0,0,1-2.582,3.237,11.774,11.774,0,0,0,3.382-.909A12.625,12.625,0,0,1,25.711,53.882Z" transform="translate(1757 376.281)"/></g></svg>