<svg id="ucg_stamp_navy" xmlns="http://www.w3.org/2000/svg" width="147.196" height="148.339" viewBox="0 0 147.196 148.339">
  <path id="Path_46787" data-name="Path 46787" d="M7.963,180.5a4.025,4.025,0,0,1-3.085.165L0,179.292l.344-1.225,4.828,1.36q2.761.774,3.438-1.637a2.423,2.423,0,0,0-.174-2,3.128,3.128,0,0,0-1.9-1.21l-4.828-1.357.336-1.178,4.878,1.375a4.016,4.016,0,0,1,2.555,1.749,3.7,3.7,0,0,1,.221,2.944A3.678,3.678,0,0,1,7.963,180.5Z" transform="translate(0 -121.4)" fill="#fff"/>
  <path id="Path_46788" data-name="Path 46788" d="M30.616,106.29l7.513,4.784-.559.883-8.478.939,5.593,3.568-.677,1.075L26.5,112.752l.559-.883,8.478-.939-5.593-3.571Z" transform="translate(-18.699 -74.999)" fill="#fff"/>
  <path id="Path_46789" data-name="Path 46789" d="M81.594,65.911a4.336,4.336,0,0,1-2.355-.112,4.763,4.763,0,0,1-3.068-3.509,4.372,4.372,0,0,1,.2-2.355A5.293,5.293,0,0,1,79.462,56.9a3.892,3.892,0,0,1,1.8-.194l-.094,1.148a3.321,3.321,0,0,0-2.582.86,3.627,3.627,0,0,0-1.045,1.531,3.283,3.283,0,0,0-.132,1.749,3.462,3.462,0,0,0,.815,1.616,3.5,3.5,0,0,0,1.5,1.019,3.238,3.238,0,0,0,1.766.094,3.642,3.642,0,0,0,1.643-.848A3.33,3.33,0,0,0,84.3,61.416l1.151.056a3.951,3.951,0,0,1-.427,1.766,5.005,5.005,0,0,1-1.2,1.531A4.884,4.884,0,0,1,81.594,65.911Z" transform="translate(-53.691 -39.99)" fill="#fff"/>
  <path id="Path_46790" data-name="Path 46790" d="M134.886,30.764A4.383,4.383,0,0,1,132.654,30a4.732,4.732,0,0,1-1.969-4.219,4.366,4.366,0,0,1,.851-2.2,5.27,5.27,0,0,1,4.4-2.061,4.348,4.348,0,0,1,2.223.762,4.777,4.777,0,0,1,1.972,4.236,4.325,4.325,0,0,1-.848,2.2,5.261,5.261,0,0,1-4.4,2.061Zm3.386-2.65a3.277,3.277,0,0,0,.589-1.637,3.6,3.6,0,0,0-1.472-3.171,3.262,3.262,0,0,0-1.637-.589,3.486,3.486,0,0,0-1.787.341,3.553,3.553,0,0,0-1.422,1.154,3.238,3.238,0,0,0-.6,1.619,3.627,3.627,0,0,0,1.472,3.185,3.238,3.238,0,0,0,1.649.589A3.73,3.73,0,0,0,138.271,28.114Z" transform="translate(-92.199 -15.181)" fill="#fff"/>
  <path id="Path_46791" data-name="Path 46791" d="M208.439,8.991l-.81-6.438-2.517,5.77-.589.074-3.874-4.928.8,6.4-1.213.153-1.1-8.846,1.036-.13L204.635,6.8,207.491.13,208.527,0l1.125,8.832Z" transform="translate(-140.508)" fill="#fff"/>
  <path id="Path_46792" data-name="Path 46792" d="M282.025,11.908l1.225-6.371-4.192,4.71-.589-.112-2.137-5.888-1.21,6.321-1.2-.233,1.7-8.746,1.025.2L279.1,8.644l4.787-5.461,1.024.2-1.687,8.752Z" transform="translate(-193.28 -1.122)" fill="#fff"/>
  <path id="Path_46793" data-name="Path 46793" d="M345.972,35.56a4.357,4.357,0,0,1-.7-2.252,4.71,4.71,0,0,1,2.243-4.083,4.351,4.351,0,0,1,2.276-.615,5.264,5.264,0,0,1,4.254,2.335,4.366,4.366,0,0,1,.7,2.243,4.772,4.772,0,0,1-2.249,4.095,4.348,4.348,0,0,1-2.27.612,5.258,5.258,0,0,1-4.251-2.335Zm4.151,1.154a3.238,3.238,0,0,0,1.675-.483,3.6,3.6,0,0,0,1.684-3.068,3.294,3.294,0,0,0-.492-1.672,3.465,3.465,0,0,0-1.325-1.236,3.553,3.553,0,0,0-1.766-.465,3.259,3.259,0,0,0-1.687.477,3.6,3.6,0,0,0-1.684,3.068,3.238,3.238,0,0,0,.5,1.678,3.577,3.577,0,0,0,1.34,1.245A3.5,3.5,0,0,0,350.123,36.714Z" transform="translate(-243.624 -20.187)" fill="#fff"/>
  <path id="Path_46794" data-name="Path 46794" d="M408.91,72.3l-6.371,6.229-.73-.745,1.013-8.47-4.749,4.648-.883-.913,6.371-6.229.73.748-1.013,8.467,4.749-4.646Z" transform="translate(-280.26 -47.149)" fill="#fff"/>
  <path id="Path_46795" data-name="Path 46795" d="M459.867,173.727a4.339,4.339,0,0,1,1.072-2.087,4.772,4.772,0,0,1,4.469-1.357,4.359,4.359,0,0,1,2.061,1.145,4.964,4.964,0,0,1,1.269,2.143,5.084,5.084,0,0,1,.218,1.928,3.945,3.945,0,0,1-.58,1.716l-1.007-.559a3.335,3.335,0,0,0,.294-2.705,3.662,3.662,0,0,0-.948-1.59,3.206,3.206,0,0,0-1.54-.842,3.621,3.621,0,0,0-3.35,1.016,3.238,3.238,0,0,0-.812,1.557,3.632,3.632,0,0,0,.094,1.846,3.338,3.338,0,0,0,1.752,2.09l-.527,1.024a3.953,3.953,0,0,1-1.428-1.116,4.988,4.988,0,0,1-.9-1.731A4.928,4.928,0,0,1,459.867,173.727Z" transform="translate(-324.417 -120.074)" fill="#fff"/>
  <path id="Path_46796" data-name="Path 46796" d="M471.747,239.613l-.094-4.737-2.246-.933-.026-1.313,8.991,3.859.023,1.254-8.832,4.222-.026-1.334Zm1.01-.468,4.328-2.008-4.416-1.834Z" transform="translate(-331.198 -164.146)" fill="#fff"/>
  <path id="Path_46797" data-name="Path 46797" d="M470.737,307.006a3.115,3.115,0,0,1-4.416-1.154,4.142,4.142,0,0,1-.109-2.847l.559-2.128-2.611-.686.324-1.231,8.62,2.261-.883,3.359A4.111,4.111,0,0,1,470.737,307.006Zm-3.406-1.852a2.046,2.046,0,0,0,2.867.754,2.891,2.891,0,0,0,.98-1.637l.548-2.093-3.865-1.016-.551,2.093A2.754,2.754,0,0,0,467.331,305.154Z" transform="translate(-327.515 -210.949)" fill="#fff"/>
  <path id="Path_46798" data-name="Path 46798" d="M450.523,361.036l-.6,1.119-7.84-4.236.6-1.119Z" transform="translate(-311.935 -251.761)" fill="#fff"/>
  <path id="Path_46799" data-name="Path 46799" d="M419.5,403.688l2.02-2.293.83.73-4.872,5.535-.83-.733,2.02-2.293-5.855-5.158.833-.945Z" transform="translate(-291.282 -281.206)" fill="#fff"/>
  <path id="Path_46800" data-name="Path 46800" d="M360.975,434.956l3.93-2.65-.427-2.4,1.089-.73,1.613,9.662-1.045.7-8.325-5.14,1.11-.745Zm.936.589,4.03,2.555-.839-4.71Z" transform="translate(-252.474 -302.833)" fill="#fff"/>
  <path id="Path_46801" data-name="Path 46801" d="M314.827,469.989l-1.207.4-2.485-7.4-4.575,1.537-.35-1.051,5.779-1.94Z" transform="translate(-216.064 -325.666)" fill="#fff"/>
  <path id="Path_46802" data-name="Path 46802" d="M201.095,477.154l-1.21-.168.477-3.444a4.813,4.813,0,0,1,1.643-.618,5.842,5.842,0,0,1,1.855-.038,5.005,5.005,0,0,1,2.329.921,4.4,4.4,0,0,1,1.472,1.849,4.746,4.746,0,0,1-.645,4.634,4.292,4.292,0,0,1-1.914,1.378,5.084,5.084,0,0,1-2.508.244,5.18,5.18,0,0,1-1.872-.615,4.01,4.01,0,0,1-1.331-1.219l.883-.674a3.58,3.58,0,0,0,2.417,1.378,3.763,3.763,0,0,0,1.869-.183,3.237,3.237,0,0,0,1.425-1.036,3.442,3.442,0,0,0,.7-1.684,3.385,3.385,0,0,0-.215-1.8,3.277,3.277,0,0,0-1.083-1.392,4,4,0,0,0-3.883-.409Z" transform="translate(-140.691 -333.632)" fill="#fff"/>
  <path id="Path_46803" data-name="Path 46803" d="M138.585,451.258l.633,3.285c.224.08.4.15.521.206l2.011.9,1.107-2.476,1.163.521-3.648,8.131-3.179-1.422a4.107,4.107,0,0,1-2.146-1.869,2.805,2.805,0,0,1,.027-2.485,3,3,0,0,1,1.178-1.4,2.873,2.873,0,0,1,1.766-.371l-.707-3.595Zm-1.151,4.216a2.061,2.061,0,0,0-1.219,2.711,2.884,2.884,0,0,0,1.472,1.225l1.975.883,1.652-3.656-1.972-.883A2.865,2.865,0,0,0,137.434,455.474Z" transform="translate(-95.094 -318.01)" fill="#fff"/>
  <path id="Path_46804" data-name="Path 46804" d="M85.279,420.861a4.366,4.366,0,0,1,.224,2.355,4.478,4.478,0,0,1-1.048,2.167,4.531,4.531,0,0,1-1.984,1.369,4.38,4.38,0,0,1-2.355.132,5.264,5.264,0,0,1-3.683-3.159,4.327,4.327,0,0,1-.221-2.337,4.766,4.766,0,0,1,3.041-3.553,4.345,4.345,0,0,1,2.355-.133,5.275,5.275,0,0,1,3.68,3.159Zm-3.827-1.984a3.262,3.262,0,0,0-1.737.13,3.615,3.615,0,0,0-2.282,2.65,3.262,3.262,0,0,0,.138,1.737,3.5,3.5,0,0,0,1.045,1.487,3.615,3.615,0,0,0,1.64.818A3.239,3.239,0,0,0,82,425.577a3.615,3.615,0,0,0,2.282-2.65,3.238,3.238,0,0,0-.147-1.746,3.592,3.592,0,0,0-1.057-1.5,3.533,3.533,0,0,0-1.625-.81Z" transform="translate(-53.726 -294.661)" fill="#fff"/>
  <path id="Path_46805" data-name="Path 46805" d="M37.163,371.173a4.038,4.038,0,0,1-1.931,2.414l-4.269,2.732-.686-1.072,4.225-2.7q2.411-1.546,1.06-3.656a2.426,2.426,0,0,0-1.6-1.2,3.113,3.113,0,0,0-2.17.618l-4.225,2.711-.665-1.039,4.269-2.732a4,4,0,0,1,3.006-.745A3.743,3.743,0,0,1,36.53,368.3,3.689,3.689,0,0,1,37.163,371.173Z" transform="translate(-18.981 -258.562)" fill="#fff"/>
  <path id="Path_46806" data-name="Path 46806" d="M3.444,309.562a2.8,2.8,0,0,1,1.908-1.593,2.8,2.8,0,0,1,2.467.312,4.146,4.146,0,0,1,1.557,2.385l.618,2.114,2.591-.76.356,1.222-8.537,2.5-.98-3.335A4.123,4.123,0,0,1,3.444,309.562Zm3.868-.177a1.8,1.8,0,0,0-1.6-.194,1.781,1.781,0,0,0-1.242,1.033,2.849,2.849,0,0,0,.024,1.914l.6,2.078,3.827-1.122-.609-2.078a2.873,2.873,0,0,0-1-1.631Z" transform="translate(-2.245 -217.196)" fill="#fff"/>
  <path id="Path_46807" data-name="Path 46807" d="M163.079,178.444c.78-5.432,2.614-10.919,5.482-13.739,3.618-3.533,8.617-5.376,14.39-5.376,5.85,0,10.84,1.766,14.455,5.376,2.823,2.823,4.672,8.3,5.467,13.725a36.163,36.163,0,0,1,8.084,6.315v-.035c0-8.767-3.079-14.228-8.458-19.38a27.785,27.785,0,0,0-19.548-7.469c-7.619,0-14.614,2.617-19.465,7.469-5.3,5.3-8.455,10.613-8.455,19.38v.035A36.1,36.1,0,0,1,163.079,178.444Z" transform="translate(-109.39 -111.387)" fill="#fff"/>
  <path id="Path_46808" data-name="Path 46808" d="M168.071,278.01a27.727,27.727,0,0,0,19.465,7.463c7.7,0,14.69-2.617,19.539-7.466,3.827-3.827,6.35-7.245,6.518-11.016a25.983,25.983,0,0,0-5.735-6.771c-.277,6.586-2.234,14.917-5.867,18.411S193.386,284,187.537,284c-5.773,0-10.772-1.846-14.39-5.376s-5.593-11.832-5.864-18.405a26.054,26.054,0,0,0-5.752,6.812C161.715,270.774,164.194,274.286,168.071,278.01Z" transform="translate(-113.977 -183.613)" fill="#fff"/>
</svg>
