<svg xmlns="http://www.w3.org/2000/svg" width="279.364" height="81.016" viewBox="0 0 279.364 81.016"><defs><style>.a{fill:#fff;}</style></defs><path class="a" d="M325.723,61.7a5.536,5.536,0,0,1-1.156,3.841,4.258,4.258,0,0,1-3.324,1.257q-4.466-.007-4.466-5.1V52.78H314.51v9.009A7.156,7.156,0,0,0,316.277,67a7.645,7.645,0,0,0,9.872.01,7.118,7.118,0,0,0,1.764-5.217V52.78h-2.2Z" transform="translate(-204.681 -34.349)"/><path class="a" d="M386.643,64.6,377.134,52.78H375.28V68.627h2.263V56.81l9.509,11.817h1.858V52.78h-2.266Z" transform="translate(-244.23 -34.349)"/><path class="a" d="M438.587,55.04a6.461,6.461,0,0,1,3.188-.8,5.936,5.936,0,0,1,4.463,1.875l1.47-1.425a6.953,6.953,0,0,0-2.626-1.844,8.968,8.968,0,0,0-3.394-.625,8.811,8.811,0,0,0-4.3,1.048,7.728,7.728,0,0,0-3.01,2.9,8.486,8.486,0,0,0,0,8.308,7.714,7.714,0,0,0,3,2.916,8.73,8.73,0,0,0,4.288,1.048,8.9,8.9,0,0,0,3.394-.629,7.022,7.022,0,0,0,2.64-1.854l-1.47-1.425a5.936,5.936,0,0,1-4.463,1.9,6.464,6.464,0,0,1-3.188-.793,5.7,5.7,0,0,1-2.228-2.183,6.411,6.411,0,0,1,0-6.226A5.706,5.706,0,0,1,438.587,55.04Z" transform="translate(-281.983 -33.983)"/><path class="a" d="M501.006,67.415a7.682,7.682,0,0,0,3.01-2.895,8.485,8.485,0,0,0,0-8.308,7.727,7.727,0,0,0-3.01-2.9,9.345,9.345,0,0,0-8.625,0,7.756,7.756,0,0,0-3.021,2.909,8.346,8.346,0,0,0,0,8.283,7.71,7.71,0,0,0,3.021,2.909A9.345,9.345,0,0,0,501.006,67.415Zm-9.677-3.936a6.436,6.436,0,0,1,0-6.226,5.772,5.772,0,0,1,2.218-2.186,6.352,6.352,0,0,1,3.143-.789,6.233,6.233,0,0,1,3.143.789,5.815,5.815,0,0,1,2.2,2.186,6.436,6.436,0,0,1,0,6.226,5.807,5.807,0,0,1-2.2,2.183,6.236,6.236,0,0,1-3.143.793,6.352,6.352,0,0,1-3.143-.793A5.766,5.766,0,0,1,491.329,63.48Z" transform="translate(-317.757 -34.01)"/><path class="a" d="M570.464,52.78l-6.52,11.14-6.61-11.14H555.48V68.627h2.172V57.149l5.727,9.554h1.044l5.723-9.621.024,11.545h2.172l-.021-15.847Z" transform="translate(-361.503 -34.349)"/><path class="a" d="M641.454,52.78l-6.52,11.14-6.61-11.14H626.47V68.627h2.172V57.149l5.727,9.554h1.041l5.727-9.621.025,11.545h2.172l-.021-15.847Z" transform="translate(-407.703 -34.349)"/><path class="a" d="M706.492,53.314a9.344,9.344,0,0,0-8.625,0,7.769,7.769,0,0,0-3.017,2.909,8.345,8.345,0,0,0,0,8.283,7.724,7.724,0,0,0,3.017,2.909,9.345,9.345,0,0,0,8.625,0,7.7,7.7,0,0,0,3.014-2.895,8.486,8.486,0,0,0,0-8.308,7.738,7.738,0,0,0-3.014-2.9ZM707.54,63.48a5.856,5.856,0,0,1-2.2,2.183,6.237,6.237,0,0,1-3.143.793,6.365,6.365,0,0,1-3.143-.793,5.757,5.757,0,0,1-2.214-2.183,6.413,6.413,0,0,1,0-6.226,5.766,5.766,0,0,1,2.214-2.186,6.366,6.366,0,0,1,3.143-.789,6.234,6.234,0,0,1,3.143.789,5.867,5.867,0,0,1,2.2,2.186A6.46,6.46,0,0,1,707.54,63.48Z" transform="translate(-451.488 -34.01)"/><path class="a" d="M774.6,52.78h-2.266V64.6L762.824,52.78H760.97V68.627h2.263V56.81l9.509,11.817H774.6Z" transform="translate(-495.235 -34.349)"/><path class="a" d="M316.553,152.766a6.454,6.454,0,0,1,3.188-.789,5.937,5.937,0,0,1,4.463,1.875l1.47-1.425a6.952,6.952,0,0,0-2.626-1.844,8.971,8.971,0,0,0-3.4-.625,8.806,8.806,0,0,0-4.285,1.062,7.728,7.728,0,0,0-3.01,2.9,8.486,8.486,0,0,0,0,8.308,7.714,7.714,0,0,0,3,2.895,8.73,8.73,0,0,0,4.288,1.048,8.9,8.9,0,0,0,3.4-.636,7.022,7.022,0,0,0,2.64-1.854l-1.47-1.425a5.937,5.937,0,0,1-4.463,1.9,6.453,6.453,0,0,1-3.188-.793,5.7,5.7,0,0,1-2.228-2.183,6.411,6.411,0,0,1,0-6.226A5.685,5.685,0,0,1,316.553,152.766Z" transform="translate(-202.573 -97.592)"/><path class="a" d="M370.073,150.51,362.9,166.357h2.329l1.746-3.96H375.4l1.746,3.96h2.378l-7.2-15.847Zm-2.308,10.075,3.415-7.766,3.422,7.766Z" transform="translate(-236.173 -97.951)"/><path class="a" d="M432.481,150.51H426.3v15.847h2.263v-4.8h3.918a7.347,7.347,0,0,0,4.843-1.47,4.933,4.933,0,0,0,1.746-4.054,5.018,5.018,0,0,0-1.746-4.051A7.284,7.284,0,0,0,432.481,150.51Zm3.213,8.164a5.144,5.144,0,0,1-3.283.915H428.57v-7.11h3.841a5.093,5.093,0,0,1,3.283.918,3.635,3.635,0,0,1,0,5.277Z" transform="translate(-277.434 -97.951)"/><rect class="a" width="2.263" height="15.847" transform="translate(168.149 52.559)"/><path class="a" d="M504.14,152.48h5.434v13.877h2.238V152.48h5.434v-1.97H504.14Z" transform="translate(-328.092 -97.951)"/><path class="a" d="M555.846,150.51l-7.176,15.847H551l1.746-3.96h8.423l1.746,3.96h2.375l-7.2-15.847Zm-2.308,10.075,3.415-7.766,3.419,7.766Z" transform="translate(-357.071 -97.951)"/><path class="a" d="M614.323,150.51H612.06v15.847H622.9v-1.97h-8.58Z" transform="translate(-398.325 -97.951)"/><path class="a" d="M11.775,30.108c1.142-7.944,3.841-15.969,8.032-20.093C25.083,4.85,32.4,2.151,40.857,2.151c8.556,0,15.854,2.574,21.144,7.864,4.128,4.128,6.834,12.142,8,20.072a53.079,53.079,0,0,1,11.814,9.24v-.056c0-12.823-4.5-20.813-12.372-28.348C62.221,3.939,52.1,0,40.857,0,29.7,0,19.465,3.841,12.369,10.923,4.613,18.679,0,26.449,0,39.272v.056a52.88,52.88,0,0,1,11.775-9.219Z"/><path class="a" d="M17.575,152.233c7.2,6.984,17.331,10.913,28.488,10.913,11.255,0,21.49-3.841,28.582-10.923,5.6-5.615,9.289-10.6,9.533-16.112A38.063,38.063,0,0,0,75.8,126.2c-.405,9.631-3.269,21.822-8.583,26.931C61.924,158.3,54.643,161,46.07,161c-8.444,0-15.76-2.7-21.05-7.868s-8.171-17.3-8.58-26.92A38.063,38.063,0,0,0,8,136.184C8.276,141.652,11.9,146.8,17.575,152.233Z" transform="translate(-5.206 -82.13)"/></svg>