<svg id="Group_4796" data-name="Group 4796" xmlns="http://www.w3.org/2000/svg" xmlns:xlink="http://www.w3.org/1999/xlink" width="209.123" height="50.441" viewBox="0 0 209.123 50.441">
  <defs>
    <clipPath id="clip-path">
      <rect id="Rectangle_21891" data-name="Rectangle 21891" width="209.123" height="50.441" fill="none"/>
    </clipPath>
  </defs>
  <g id="Group_4796-2" data-name="Group 4796" clip-path="url(#clip-path)">
    <path id="Path_46723" data-name="Path 46723" d="M268.55,49.448a3.424,3.424,0,0,1-.719,2.387,2.665,2.665,0,0,1-2.071.783q-2.777,0-2.776-3.171V43.9h-1.41V49.5a4.449,4.449,0,0,0,1.1,3.241,4.76,4.76,0,0,0,6.144.007,4.447,4.447,0,0,0,1.1-3.247V43.9H268.55Z" transform="translate(-193.198 -32.421)" fill="#fff"/>
    <path id="Path_46724" data-name="Path 46724" d="M319.169,51.251l-5.919-7.357H312.1V53.76H313.5V46.4l5.92,7.357h1.156V43.895h-1.41Z" transform="translate(-230.512 -32.421)" fill="#fff"/>
    <path id="Path_46725" data-name="Path 46725" d="M363.634,45.212a4.017,4.017,0,0,1,1.986-.492,3.683,3.683,0,0,1,2.777,1.168l.916-.887a4.335,4.335,0,0,0-1.635-1.148,5.588,5.588,0,0,0-2.115-.388,5.478,5.478,0,0,0-2.677.656,4.812,4.812,0,0,0-1.875,1.8,5.282,5.282,0,0,0,0,5.172,4.816,4.816,0,0,0,1.868,1.8,5.438,5.438,0,0,0,2.67.656,5.528,5.528,0,0,0,2.12-.4,4.373,4.373,0,0,0,1.643-1.155l-.916-.887a3.688,3.688,0,0,1-2.777,1.184,4.018,4.018,0,0,1-1.986-.494,3.561,3.561,0,0,1-1.388-1.359,4,4,0,0,1,0-3.876,3.565,3.565,0,0,1,1.388-1.361" transform="translate(-266.142 -32.103)" fill="#fff"/>
    <path id="Path_46726" data-name="Path 46726" d="M413.988,52.9a4.8,4.8,0,0,0,1.875-1.8,5.282,5.282,0,0,0,0-5.172,4.812,4.812,0,0,0-1.875-1.8,5.825,5.825,0,0,0-5.369,0,4.828,4.828,0,0,0-1.88,1.81,5.2,5.2,0,0,0,0,5.158,4.826,4.826,0,0,0,1.88,1.81,5.824,5.824,0,0,0,5.369,0m-6.023-2.45a4,4,0,0,1,0-3.876,3.589,3.589,0,0,1,1.379-1.361,3.958,3.958,0,0,1,1.967-.492,3.875,3.875,0,0,1,1.952.492,3.63,3.63,0,0,1,1.367,1.361,4.012,4.012,0,0,1,0,3.876,3.628,3.628,0,0,1-1.367,1.359,3.876,3.876,0,0,1-1.952.494,3.96,3.96,0,0,1-1.967-.494,3.587,3.587,0,0,1-1.379-1.359" transform="translate(-299.91 -32.103)" fill="#fff"/>
    <path id="Path_46727" data-name="Path 46727" d="M471.283,43.9l-4.058,6.934L463.109,43.9h-1.155V53.76h1.352V46.615l3.566,5.948h.649l3.564-5.989.015,7.187h1.352l-.014-9.865Z" transform="translate(-341.198 -32.421)" fill="#fff"/>
    <path id="Path_46728" data-name="Path 46728" d="M530.318,43.9l-4.058,6.934L522.144,43.9h-1.155V53.76h1.352V46.615l3.566,5.948h.649l3.564-5.989.015,7.187h1.352l-.014-9.865Z" transform="translate(-384.801 -32.421)" fill="#fff"/>
    <path id="Path_46729" data-name="Path 46729" d="M584.877,44.121a5.824,5.824,0,0,0-5.369,0,4.827,4.827,0,0,0-1.88,1.81,5.2,5.2,0,0,0,0,5.158,4.825,4.825,0,0,0,1.88,1.81,5.824,5.824,0,0,0,5.369,0,4.8,4.8,0,0,0,1.875-1.8,5.283,5.283,0,0,0,0-5.172,4.813,4.813,0,0,0-1.875-1.8m.642,6.328a3.628,3.628,0,0,1-1.367,1.359,3.876,3.876,0,0,1-1.952.494,3.96,3.96,0,0,1-1.967-.494,3.587,3.587,0,0,1-1.379-1.359,4,4,0,0,1,0-3.876,3.59,3.59,0,0,1,1.379-1.361,3.958,3.958,0,0,1,1.967-.492,3.875,3.875,0,0,1,1.952.492,3.63,3.63,0,0,1,1.367,1.361,4.012,4.012,0,0,1,0,3.876" transform="translate(-426.128 -32.103)" fill="#fff"/>
    <path id="Path_46730" data-name="Path 46730" d="M641.335,43.9h-1.41v7.357L634.005,43.9h-1.154V53.76h1.408V46.4l5.919,7.357h1.156Z" transform="translate(-467.421 -32.421)" fill="#fff"/>
    <path id="Path_46731" data-name="Path 46731" d="M262.124,126.487a4.018,4.018,0,0,1,1.986-.492,3.682,3.682,0,0,1,2.777,1.168l.916-.887a4.335,4.335,0,0,0-1.635-1.148,5.588,5.588,0,0,0-2.115-.388,5.477,5.477,0,0,0-2.677.656,4.811,4.811,0,0,0-1.875,1.8,5.282,5.282,0,0,0,0,5.172,4.817,4.817,0,0,0,1.868,1.8,5.438,5.438,0,0,0,2.67.656,5.528,5.528,0,0,0,2.12-.4,4.374,4.374,0,0,0,1.643-1.155l-.916-.887a3.687,3.687,0,0,1-2.777,1.184,4.019,4.019,0,0,1-1.986-.494,3.561,3.561,0,0,1-1.388-1.359,4,4,0,0,1,0-3.876,3.565,3.565,0,0,1,1.388-1.361" transform="translate(-191.167 -92.132)" fill="#fff"/>
    <path id="Path_46732" data-name="Path 46732" d="M306.263,125.17l-4.467,9.865h1.451l1.085-2.466h5.243l1.085,2.466h1.48l-4.482-9.865Zm-1.437,6.272,2.127-4.835,2.129,4.835Z" transform="translate(-222.905 -92.45)" fill="#fff"/>
    <path id="Path_46733" data-name="Path 46733" d="M358.358,125.171h-3.847v9.865h1.408v-2.987h2.438a4.577,4.577,0,0,0,3.016-.916,3.447,3.447,0,0,0,0-5.046,4.577,4.577,0,0,0-3.016-.916m2,5.081a3.186,3.186,0,0,1-2.043.57h-2.4V126.4h2.4a3.187,3.187,0,0,1,2.043.57,2.266,2.266,0,0,1,0,3.285" transform="translate(-261.84 -92.451)" fill="#fff"/>
    <rect id="Rectangle_21890" data-name="Rectangle 21890" width="1.408" height="9.865" transform="translate(104.679 32.72)" fill="#fff"/>
    <path id="Path_46734" data-name="Path 46734" d="M419.259,126.4h3.382v8.639h1.395V126.4h3.382v-1.226h-8.159Z" transform="translate(-309.663 -92.451)" fill="#fff"/>
    <path id="Path_46735" data-name="Path 46735" d="M460.761,125.17l-4.467,9.865h1.451l1.085-2.466h5.243l1.085,2.466h1.48l-4.482-9.865Zm-1.437,6.272,2.127-4.835,2.129,4.835Z" transform="translate(-337.017 -92.45)" fill="#fff"/>
    <path id="Path_46736" data-name="Path 46736" d="M510.418,125.17H509.01v9.865h6.75v-1.226h-5.342Z" transform="translate(-375.953 -92.45)" fill="#fff"/>
    <path id="Path_46737" data-name="Path 46737" d="M570.868,126.48a4.171,4.171,0,0,1,2.023-.485,3.966,3.966,0,0,1,2.859,1.141l.874-.874a4.389,4.389,0,0,0-1.642-1.134,5.71,5.71,0,0,0-2.149-.388,5.631,5.631,0,0,0-2.713.649,4.785,4.785,0,0,0-1.887,1.8,5.239,5.239,0,0,0,0,5.179,4.838,4.838,0,0,0,1.88,1.8,5.51,5.51,0,0,0,2.693.656,6.375,6.375,0,0,0,2.03-.324,5.274,5.274,0,0,0,1.7-.93V129.73h-1.354v3.212a4.167,4.167,0,0,1-2.311.635,4.089,4.089,0,0,1-2.008-.494,3.607,3.607,0,0,1-1.4-1.359,3.978,3.978,0,0,1,0-3.889,3.547,3.547,0,0,1,1.4-1.354" transform="translate(-419.19 -92.132)" fill="#fff"/>
    <path id="Path_46738" data-name="Path 46738" d="M627.186,130.553a3.3,3.3,0,0,0,.564-1.945,3.11,3.11,0,0,0-1.1-2.522,4.576,4.576,0,0,0-3.016-.916h-3.847v9.865H621.2v-3h2.439c.15,0,.358-.009.62-.027l2.129,3.03h1.536l-2.34-3.312a3.173,3.173,0,0,0,1.606-1.17m-3.593.283h-2.4V126.4h2.4a3.185,3.185,0,0,1,2.043.57,1.991,1.991,0,0,1,.705,1.642,2.012,2.012,0,0,1-.705,1.65,3.156,3.156,0,0,1-2.043.577" transform="translate(-457.774 -92.45)" fill="#fff"/>
    <path id="Path_46739" data-name="Path 46739" d="M671.383,125.4a5.824,5.824,0,0,0-5.369,0,4.827,4.827,0,0,0-1.88,1.81,5.2,5.2,0,0,0,0,5.158,4.826,4.826,0,0,0,1.88,1.81,5.824,5.824,0,0,0,5.369,0,4.8,4.8,0,0,0,1.875-1.8,5.285,5.285,0,0,0,0-5.172,4.815,4.815,0,0,0-1.875-1.8m.642,6.328a3.629,3.629,0,0,1-1.367,1.359,3.876,3.876,0,0,1-1.952.494,3.96,3.96,0,0,1-1.967-.494,3.589,3.589,0,0,1-1.38-1.359,4,4,0,0,1,0-3.876,3.591,3.591,0,0,1,1.38-1.361,3.959,3.959,0,0,1,1.967-.492,3.875,3.875,0,0,1,1.952.492,3.631,3.631,0,0,1,1.367,1.361,4.013,4.013,0,0,1,0,3.876" transform="translate(-490.021 -92.132)" fill="#fff"/>
    <path id="Path_46740" data-name="Path 46740" d="M726.006,130.723a3.425,3.425,0,0,1-.718,2.387,2.666,2.666,0,0,1-2.071.783q-2.777,0-2.776-3.171V125.17h-1.41v5.609a4.448,4.448,0,0,0,1.1,3.241,4.76,4.76,0,0,0,6.144.007,4.447,4.447,0,0,0,1.1-3.247V125.17h-1.367Z" transform="translate(-531.074 -92.45)" fill="#fff"/>
    <path id="Path_46741" data-name="Path 46741" d="M776.408,126.087a4.577,4.577,0,0,0-3.016-.916h-3.846v9.865h1.408v-2.987h2.438a4.577,4.577,0,0,0,3.016-.916,3.447,3.447,0,0,0,0-5.046m-1.015,4.165a3.185,3.185,0,0,1-2.043.57h-2.4V126.4h2.4a3.187,3.187,0,0,1,2.043.57,2.266,2.266,0,0,1,0,3.285" transform="translate(-568.383 -92.451)" fill="#fff"/>
    <path id="Path_46742" data-name="Path 46742" d="M7.33,18.745C8.041,13.8,9.71,8.8,12.323,6.235a18.3,18.3,0,0,1,13.1-4.9c5.325,0,9.87,1.6,13.163,4.9,2.57,2.569,4.254,7.559,4.978,12.5a32.989,32.989,0,0,1,7.354,5.751V24.45c0-7.984-2.8-12.957-7.7-17.648A25.287,25.287,0,0,0,25.426,0C18.488,0,12.117,2.385,7.7,6.8,2.873,11.63,0,16.466,0,24.45v.033a32.963,32.963,0,0,1,7.33-5.738" transform="translate(0 -0.001)" fill="#fff"/>
    <path id="Path_46743" data-name="Path 46743" d="M12.627,121.177a25.241,25.241,0,0,0,17.726,6.8c7.006,0,13.378-2.384,17.794-6.8,3.488-3.5,5.783-6.6,5.935-10.03a23.735,23.735,0,0,0-5.222-6.17c-.253,6-2.036,13.585-5.343,16.765-3.293,3.216-7.838,4.9-13.163,4.9a18.3,18.3,0,0,1-13.1-4.9c-3.3-3.242-5.088-10.772-5.342-16.759a23.729,23.729,0,0,0-5.237,6.2c.167,3.4,2.425,6.607,5.957,9.991" transform="translate(-4.926 -77.536)" fill="#fff"/>
  </g>
</svg>
