<svg id="Layer_1" data-name="Layer 1" xmlns="http://www.w3.org/2000/svg" width="174.607" height="59.175" viewBox="0 0 174.607 59.175">
  <g id="Group_4688" data-name="Group 4688">
    <path id="Path_46555" data-name="Path 46555" d="M44.22,39.508H41.171Q35.062,21.91,28.954,4.28a.473.473,0,0,1-.108-.008q-6.155,17.61-12.287,35.236H13.472Q6.74,19.8,0,.046A2.157,2.157,0,0,1,.293,0H3.064q6,17.714,12,35.382h.115Q21.348,17.714,27.529,0h2.525c.254,0,.316.154.385.346.331.985.67,1.963,1.016,2.948Q34,10.6,36.529,17.914l5.52,15.936a11,11,0,0,0,.662,1.617Q48.762,17.753,54.82.023h2.756c-.015.393-12.933,38.561-13.364,39.485Z" fill="#adadad"/>
    <path id="Path_46556" data-name="Path 46556" d="M108.177,4.366q-6.166,17.679-12.341,35.374h-2.81Q86.9,22.061,80.756,4.343a.473.473,0,0,1-.1-.008c-1.055,2.918-2.009,5.874-3.025,8.807C76.6,16.1,75.6,19.07,74.589,22.026s-2.009,5.9-3.018,8.845-2.017,5.889-3.033,8.861H65.69C70.163,26.569,74.628,13.435,79.108.24H81.8c.393,0,.393,0,.516.354Q83.847,5.028,85.39,9.47q2.321,6.7,4.65,13.4,2.067,5.982,4.142,11.956c.077.223.162.439.239.662h.115Q100.668,17.881,106.823.24h2.687c.385,0,.385,0,.508.37q.855,2.517,1.717,5.035,2.517,7.39,5.042,14.789l4.25,12.471,2.125,6.213c.069.192.123.393.192.624h-3.056q-5.993-17.668-12-35.366a.474.474,0,0,1-.1-.008Z" transform="translate(-15.119 -0.055)" fill="#adadad"/>
    <path id="Path_46557" data-name="Path 46557" d="M144.941.128c.192-.008.362-.031.539-.031,4.773,0,9.546-.023,14.319.008a19.335,19.335,0,0,1,8.153,1.717,11.889,11.889,0,0,1,5.135,4.342,11.978,11.978,0,0,1,1.632,4.273,15.913,15.913,0,0,1,.062,5.435,11.7,11.7,0,0,1-3.241,6.451,11.88,11.88,0,0,1-4.865,2.972c-.3.1-.593.208-.939.331,3.3,4.634,6.559,9.207,9.862,13.842-.223.008-.346.023-.47.023-.724,0-1.44-.023-2.163.008a.922.922,0,0,1-.908-.462c-1.216-1.748-2.456-3.472-3.7-5.2-1.717-2.41-3.441-4.812-5.15-7.229a.7.7,0,0,0-.762-.323,20.769,20.769,0,0,1-2.387.192c-3.942.015-7.883,0-11.817,0-.577,0-.593,0-.593.585v11.7c0,.216-.015.439-.031.693h-2.648C144.879,39.1,144.833,1,144.933.121ZM147.7,2.676c-.015.231-.038.447-.038.67V23.339a.65.65,0,0,0,.731.739c3.187,0,6.374.015,9.561,0,1.216-.008,2.433-.062,3.641-.154a14.231,14.231,0,0,0,5.789-1.755,8.317,8.317,0,0,0,4-4.542,12.569,12.569,0,0,0,.454-7.167,8.591,8.591,0,0,0-1.671-3.626,10.065,10.065,0,0,0-4.542-3.179,18.454,18.454,0,0,0-6.405-1.016c-3.718.038-7.429,0-11.147,0-.108,0-.216.023-.37.038Z" transform="translate(-33.345 -0.021)" fill="#adadad"/>
    <path id="Path_46558" data-name="Path 46558" d="M193.724,36.977h24.358a18,18,0,0,1,.023,2.494H190.929c-.1-.346-.146-38.384-.046-39.3a2.314,2.314,0,0,1,.346-.062c.3-.008.608,0,.916,0h25.066a19.871,19.871,0,0,1,.015,2.533H193.67c-.023.216-.054.385-.054.554V17.677c0,.169.031.346.046.562.246.015.462.031.685.031H214.24c.154,0,.308.031.477.046v2.379H193.724c-.154.47-.154,15.8,0,16.282Z" transform="translate(-43.921 -0.024)" fill="#adadad"/>
    <path id="Path_46559" data-name="Path 46559" d="M3.83,69l1.986-7.6a.1.1,0,0,1,.008-.046.644.644,0,0,1,.8-.493c.239.885.485,1.794.724,2.7.246.924.493,1.855.739,2.779.239.9.4,1.825.739,2.8.593-2.833,1.162-5.543,1.74-8.283h.647c-.677,3.033-1.347,6.043-2.025,9.092H8.442q-1.062-4.065-2.125-8.122H6.248c-.154.593-.3,1.193-.462,1.786L4.262,69.467a.633.633,0,0,1-.754.5c-.177-.293-2.079-8.461-2.117-9.1h.624c.293,1.378.593,2.748.885,4.119q.439,2.032.862,4.057c.023-.008.046-.023.069-.031Z" transform="translate(-0.32 -14.008)" fill="#adadad"/>
    <path id="Path_46560" data-name="Path 46560" d="M52.957,69.947H52.38V60.863a.8.8,0,0,1,.162-.054.858.858,0,0,1,.947.624q1.062,2.979,2.132,5.951a2.688,2.688,0,0,0,.354.716c.862-2.417,1.717-4.842,2.587-7.275h.831c.108.316.162,8.307.054,9.107h-.608V61.764a3.4,3.4,0,0,0-.146.316c-.762,2.1-1.517,4.2-2.279,6.313a.434.434,0,0,1-.031.092c-.177.493-.177.493-.778.416q-1.282-3.557-2.594-7.152c-.015,0-.031.015-.046.023v8.168Z" transform="translate(-12.056 -13.995)" fill="#adadad"/>
    <path id="Path_46561" data-name="Path 46561" d="M96.8,64.006v.531H95.335a2.4,2.4,0,0,1,.092,3.226,2.307,2.307,0,0,1-2.856.554,1.052,1.052,0,0,0-.485.616.769.769,0,0,0,.57,1.07,3.6,3.6,0,0,0,.762.069c.624.023,1.247.031,1.871.054a1.963,1.963,0,0,1,.516.092,1.387,1.387,0,0,1,1.047,1.871,2,2,0,0,1-.731,1.039,3.77,3.77,0,0,1-2.9.7,4.3,4.3,0,0,1-1.278-.377,1.547,1.547,0,0,1-.554-2.394c.169-.231.377-.423.593-.662a1.447,1.447,0,0,1-.539-1.17,1.773,1.773,0,0,1,.677-1.147c-.154-.223-.316-.439-.447-.662a2.354,2.354,0,0,1,.439-2.972,2.063,2.063,0,0,1,1.771-.554,15.252,15.252,0,0,0,2.44.123h.485Zm-2.91,9.323a2.766,2.766,0,0,0,1.732-.516,1.58,1.58,0,0,0,.631-.878.851.851,0,0,0-.6-1.124,5.66,5.66,0,0,0-1.085-.139c-.624-.038-1.247-.046-1.871-.062a.541.541,0,0,0-.277.038A1.582,1.582,0,0,0,91.64,71.9a1.169,1.169,0,0,0,.693,1.116,3.106,3.106,0,0,0,1.563.308Zm1.5-7.183a4.512,4.512,0,0,0-.1-.562,1.556,1.556,0,0,0-1.263-1.178,1.638,1.638,0,0,0-1.709.624,2,2,0,0,0,.239,2.579,1.551,1.551,0,0,0,1.232.423,1.776,1.776,0,0,0,1.6-1.894Z" transform="translate(-20.953 -14.698)" fill="#adadad"/>
    <path id="Path_46562" data-name="Path 46562" d="M155.846,69.925a.769.769,0,0,1-1.016-.416c-.624-1.132-1.309-2.233-1.955-3.357a.626.626,0,0,0-.647-.37c-.477.031-.955,0-1.478,0v4.149h-.67V60.887c.069-.038.108-.077.154-.077,1.085.023,2.179.031,3.264.085a2.889,2.889,0,0,1,.878.223A1.9,1.9,0,0,1,155.6,62.5a2.432,2.432,0,0,1-1.786,3.156l-.431.108c.824,1.393,1.632,2.756,2.463,4.157ZM150.773,65.2c.831,0,1.617.038,2.394-.015a2.649,2.649,0,0,0,1.116-.385,1.753,1.753,0,0,0,.724-1.763,1.48,1.48,0,0,0-.985-1.393,1.686,1.686,0,0,0-.177-.069,13.142,13.142,0,0,0-3.072-.185v3.818Z" transform="translate(-34.542 -13.996)" fill="#adadad"/>
    <path id="Path_46563" data-name="Path 46563" d="M117.623,70.649h-.6c-.008-.146-.023-.285-.023-.423,0-1.232.015-2.463,0-3.688a4.266,4.266,0,0,0-.115-1.085,1.331,1.331,0,0,0-1.917-.908,3.5,3.5,0,0,0-1.27.993.8.8,0,0,0-.115.493v4.6c-.216.015-.4.023-.631.038-.008-.2-.023-.37-.023-.539v-3.88a2.925,2.925,0,0,0-.139-.893,1.281,1.281,0,0,0-1.617-.9,3.09,3.09,0,0,0-1.586,1.109.875.875,0,0,0-.1.5v4.573h-.616V64.029c.169,0,.316-.015.477-.023.046.316.085.6.131.947.262-.216.47-.393.693-.562a2.279,2.279,0,0,1,1.694-.516,1.7,1.7,0,0,1,1.4.947c.046.1.1.192.177.331a5.98,5.98,0,0,1,.462-.439,7.12,7.12,0,0,1,.932-.67,1.86,1.86,0,0,1,2.664,1.109,3.188,3.188,0,0,1,.146.893c.015,1.455.015,2.91.015,4.365a2.238,2.238,0,0,1-.031.239Z" transform="translate(-25.057 -14.689)" fill="#adadad"/>
    <path id="Path_46564" data-name="Path 46564" d="M184.8,69.934V60.85h4.9v.585h-4.28v3.41c.608.023,1.209.008,1.809.015h1.794v.57h-3.6v3.988c1.47.062,2.933,0,4.434.031v.47a42.26,42.26,0,0,1-5.05.023Z" transform="translate(-42.534 -14.005)" fill="#adadad"/>
    <path id="Path_46565" data-name="Path 46565" d="M43.562,69.722H43V59.83h.547v4.2a2.732,2.732,0,0,0,.316-.192c.269-.192.531-.416.816-.585a2.4,2.4,0,0,1,1.855-.239,1.4,1.4,0,0,1,1.055.893,3.819,3.819,0,0,1,.269,1.155c.038,1.486.023,2.972.023,4.457a1.353,1.353,0,0,1-.038.208H47.25c-.008-.146-.023-.269-.023-.393,0-1.263.015-2.525,0-3.788a4.844,4.844,0,0,0-.092-1A1.311,1.311,0,0,0,45.587,63.5a2.98,2.98,0,0,0-1.948,1.209.9.9,0,0,0-.1.547v4.465Z" transform="translate(-9.897 -13.77)" fill="#adadad"/>
    <path id="Path_46566" data-name="Path 46566" d="M24.774,65.169c-.092-.154-.169-.269-.262-.416a2.619,2.619,0,0,1,.293-.246,3.944,3.944,0,0,1,2.417-.631,1.777,1.777,0,0,1,1.709,1.432,5.108,5.108,0,0,1,.154,1.186c.023,1.278.015,2.556.015,3.834,0,.092-.023.185-.038.323-.162.008-.308.015-.485.031-.054-.269-.092-.5-.154-.8-.177.115-.323.216-.477.316a3.159,3.159,0,0,1-2.163.624A1.625,1.625,0,0,1,24.3,69.773a1.837,1.837,0,0,1,.308-1.978,2.38,2.38,0,0,1,1.124-.708c.693-.192,1.393-.339,2.094-.5.185-.038.377-.062.57-.092a2.009,2.009,0,0,0-.162-1.278,1.419,1.419,0,0,0-1.455-.8,3.511,3.511,0,0,0-1.54.485c-.139.077-.269.162-.462.277Zm3.664,1.825c-.239.031-.431.038-.608.077-.439.085-.885.162-1.309.285a4.025,4.025,0,0,0-1.008.431,1.351,1.351,0,0,0,1,2.494,3.811,3.811,0,0,0,1.763-.916.493.493,0,0,0,.162-.277c.015-.685,0-1.37,0-2.086Z" transform="translate(-5.559 -14.699)" fill="#adadad"/>
    <path id="Path_46567" data-name="Path 46567" d="M206.37,65.162c-.1-.154-.185-.285-.293-.447a3.816,3.816,0,0,1,3.226-.747,1.727,1.727,0,0,1,1.27,1.524,5.011,5.011,0,0,1,.077.762c.015,1.355.015,2.718.015,4.072a2.874,2.874,0,0,1-.031.316h-.508c-.023-.231-.046-.447-.069-.685a1.363,1.363,0,0,0-.631.316,3.285,3.285,0,0,1-2,.547,1.672,1.672,0,0,1-1.57-1.132,1.778,1.778,0,0,1,.47-2.017,2.967,2.967,0,0,1,.985-.577c.7-.216,1.424-.354,2.14-.516.185-.038.37-.062.57-.1a2.337,2.337,0,0,0-.231-1.332,1.4,1.4,0,0,0-1.447-.731,3.456,3.456,0,0,0-1.5.462c-.139.077-.277.162-.477.285Zm3.672,1.763c-.824.192-1.555.339-2.271.547a3.134,3.134,0,0,0-.916.5,1.3,1.3,0,0,0-.393,1.432,1.124,1.124,0,0,0,.985.855,1.645,1.645,0,0,0,.477.031,3.445,3.445,0,0,0,1.986-.97.357.357,0,0,0,.131-.239c.008-.677,0-1.363,0-2.163Z" transform="translate(-47.351 -14.699)" fill="#adadad"/>
    <path id="Path_46568" data-name="Path 46568" d="M87.413,70.647c-.185.008-.331.015-.523.031-.038-.285-.077-.531-.115-.808-.169.115-.308.216-.454.308a3.293,3.293,0,0,1-2.163.654A1.664,1.664,0,0,1,82.6,69.746a1.877,1.877,0,0,1,.454-2.071,3.751,3.751,0,0,1,1.578-.778c.508-.131,1.032-.208,1.555-.308.185-.038.37-.069.57-.1a2.356,2.356,0,0,0-.269-1.37,1.414,1.414,0,0,0-1.478-.685,3.28,3.28,0,0,0-1.363.423c-.177.1-.362.2-.562.308-.092-.131-.169-.246-.246-.362a.441.441,0,0,1,.077-.139,3.865,3.865,0,0,1,2.656-.77,1.789,1.789,0,0,1,1.671,1.417,5.149,5.149,0,0,1,.162,1.139c.015,1.37,0,2.748,0,4.2Zm-.654-3.641a8.329,8.329,0,0,0-2.641.616,1.626,1.626,0,0,0-.862.785,1.317,1.317,0,0,0,.1,1.363,1.366,1.366,0,0,0,1.309.531,3.475,3.475,0,0,0,1.948-.947.352.352,0,0,0,.139-.231c.008-.693,0-1.393,0-2.117Z" transform="translate(-18.982 -14.702)" fill="#adadad"/>
    <path id="Path_46569" data-name="Path 46569" d="M172.172,69.865c-.293.185-.531.346-.778.493a3.017,3.017,0,0,1-1.925.454,1.609,1.609,0,0,1-1.463-1.07,1.831,1.831,0,0,1,.339-1.971,2.442,2.442,0,0,1,1.124-.7c.693-.192,1.393-.331,2.094-.493.185-.038.37-.062.577-.1a2.219,2.219,0,0,0-.246-1.363,1.4,1.4,0,0,0-1.463-.7,3.28,3.28,0,0,0-1.409.439c-.162.092-.331.185-.531.3-.092-.131-.177-.254-.285-.416a3.982,3.982,0,0,1,1.886-.824,2.038,2.038,0,0,1,2.664,2.117c.077,1.4.054,2.81.077,4.211,0,.108-.015.223-.023.385-.169.015-.331.023-.516.038-.038-.277-.077-.508-.123-.8Zm0-2.9c-.647.131-1.247.216-1.825.37a4.408,4.408,0,0,0-1.1.447,1.348,1.348,0,0,0,.962,2.5,3.734,3.734,0,0,0,1.84-.962.42.42,0,0,0,.123-.246c.008-.677,0-1.363,0-2.117Z" transform="translate(-38.636 -14.699)" fill="#adadad"/>
    <path id="Path_46570" data-name="Path 46570" d="M64.6,64.73a4.222,4.222,0,0,1,2.51-.87,1.883,1.883,0,0,1,2,1.678,6.285,6.285,0,0,1,.092,1c.015,1.263.008,2.525.008,3.788,0,.092-.015.185-.023.331-.192-.015-.354-.031-.539-.046-.015-.254-.031-.47-.054-.77-.208.139-.377.246-.547.354a3.221,3.221,0,0,1-2.125.608,1.607,1.607,0,0,1-1.509-1.078,1.754,1.754,0,0,1,.385-1.994,3.239,3.239,0,0,1,1.047-.654c.677-.223,1.393-.346,2.094-.508.2-.046.408-.069.631-.108a2.451,2.451,0,0,0-.385-1.517,1.413,1.413,0,0,0-1.363-.539,3.226,3.226,0,0,0-1.447.477c-.154.085-.3.185-.477.3-.1-.146-.192-.285-.308-.462Zm4,2.317a6.419,6.419,0,0,0-2.848.67,2.1,2.1,0,0,0-.516.423,1.312,1.312,0,0,0,.754,2.125,2,2,0,0,0,.523.031,3.489,3.489,0,0,0,1.932-.97.429.429,0,0,0,.146-.285c.015-.662,0-1.324,0-1.986Z" transform="translate(-14.794 -14.698)" fill="#adadad"/>
    <path id="Path_46571" data-name="Path 46571" d="M127.955,67.469h-4.781a2.756,2.756,0,0,0,1.139,2.4,2.7,2.7,0,0,0,3.118-.139,1.08,1.08,0,0,1,.123.154,2.391,2.391,0,0,1,.123.3,3.609,3.609,0,0,1-1.586.608,3.03,3.03,0,0,1-3.51-2.687,3.982,3.982,0,0,1,.77-3.249,2.6,2.6,0,0,1,2.7-.939,2.124,2.124,0,0,1,1.555,1.239,4.287,4.287,0,0,1,.331,2.31Zm-4.735-.554a27.534,27.534,0,0,0,4.149-.054,3.116,3.116,0,0,0-.293-1.463,1.794,1.794,0,0,0-2.317-.87,2.575,2.575,0,0,0-1.547,2.394Z" transform="translate(-28.199 -14.696)" fill="#adadad"/>
    <path id="Path_46572" data-name="Path 46572" d="M164.541,67.455h-4.75a2.789,2.789,0,0,0,1.085,2.387,2.663,2.663,0,0,0,3.179-.139c.092.162.169.3.285.5a10.719,10.719,0,0,1-.985.447,3.048,3.048,0,0,1-4.142-2.44,4.174,4.174,0,0,1,.185-2.356,2.821,2.821,0,0,1,2.425-1.978,2.307,2.307,0,0,1,2.448,1.386,3.652,3.652,0,0,1,.262,2.194Zm-.6-.531a2.653,2.653,0,0,0-.524-1.948,1.731,1.731,0,0,0-.893-.523,2.333,2.333,0,0,0-2.679,2.471Z" transform="translate(-36.624 -14.698)" fill="#adadad"/>
    <path id="Path_46573" data-name="Path 46573" d="M225.15,67.46h-4.742a2.671,2.671,0,0,0,1.109,2.4,2.621,2.621,0,0,0,3.141-.185c.085.169.169.323.246.47a3.142,3.142,0,0,1-5.119-2.163,3.916,3.916,0,0,1,.6-2.887,2.681,2.681,0,0,1,2.779-1.209,2.123,2.123,0,0,1,1.586,1.124,3.843,3.843,0,0,1,.385,2.44Zm-4.7-.547h4.142a3.147,3.147,0,0,0-.308-1.563,1.8,1.8,0,0,0-1.925-.939,2.532,2.532,0,0,0-1.909,2.5Z" transform="translate(-50.574 -14.695)" fill="#adadad"/>
    <path id="Path_46574" data-name="Path 46574" d="M105.009,67.465h-4.765a2.872,2.872,0,0,0,1.055,2.34,2.693,2.693,0,0,0,3.249-.085l.246.47a3.425,3.425,0,0,1-1.609.616,3.05,3.05,0,0,1-3.541-2.925,4.552,4.552,0,0,1,.231-2.032,2.805,2.805,0,0,1,2.479-1.971,2.222,2.222,0,0,1,2.448,1.517,4.291,4.291,0,0,1,.2,2.071Zm-4.758-.562a26.449,26.449,0,0,0,4.242-.054,10.228,10.228,0,0,0-.185-1.062,1.874,1.874,0,0,0-3.2-.793,3.123,3.123,0,0,0-.855,1.909Z" transform="translate(-22.929 -14.7)" fill="#adadad"/>
    <path id="Path_46575" data-name="Path 46575" d="M20.846,67.465H16.066a2.884,2.884,0,0,0,1.178,2.44,2.746,2.746,0,0,0,3.11-.169c.085.139.154.269.254.446a3.4,3.4,0,0,1-1.594.631,3.042,3.042,0,0,1-3.541-2.972,4.137,4.137,0,0,1,.316-2.2,2.825,2.825,0,0,1,2.387-1.763,2.319,2.319,0,0,1,2.433,1.493,4.317,4.317,0,0,1,.239,2.1Zm-.585-.539A3,3,0,0,0,19.9,65.24a1.774,1.774,0,0,0-1.855-.816,2.514,2.514,0,0,0-1.932,2.494h4.149Z" transform="translate(-3.556 -14.7)" fill="#adadad"/>
    <path id="Path_46576" data-name="Path 46576" d="M131.79,64.007c.177.008.316.015.493.031.031.316.062.608.1.978.177-.154.316-.269.454-.393a2.682,2.682,0,0,1,2.294-.724,1.5,1.5,0,0,1,1.27.97,3.234,3.234,0,0,1,.246,1.062c.031,1.486.015,2.972.015,4.457a1.97,1.97,0,0,1-.031.262c-.169.008-.323.023-.539.031-.008-.192-.023-.362-.023-.531V66.509a6.355,6.355,0,0,0-.062-.762,1.444,1.444,0,0,0-2.086-1.2,3.822,3.822,0,0,0-1.393.993.679.679,0,0,0-.1.439v4.65H131.8V64.007Z" transform="translate(-30.333 -14.699)" fill="#adadad"/>
    <path id="Path_46577" data-name="Path 46577" d="M77.893,70.626V67.47c0-.577-.008-1.147-.062-1.724a1.424,1.424,0,0,0-2.148-1.178,6.267,6.267,0,0,0-1.316.947c-.1.085-.115.316-.115.485-.008,1.355,0,2.718,0,4.072v.554H73.62V64.021c.139,0,.285-.015.485-.023.038.331.069.624.108.97a1.926,1.926,0,0,0,.262-.192,3.738,3.738,0,0,1,1.193-.785,1.962,1.962,0,0,1,2.818,1.863v4.765h-.593Z" transform="translate(-16.944 -14.69)" fill="#adadad"/>
    <path id="Path_46578" data-name="Path 46578" d="M192.66,69.867c.108-.123.223-.246.339-.37.285.169.531.339.8.485a2.557,2.557,0,0,0,1.855.254,1.225,1.225,0,0,0,1.016-1.024,1.1,1.1,0,0,0-.593-1.2c-.385-.216-.808-.37-1.216-.554a11.49,11.49,0,0,1-1.124-.523,1.449,1.449,0,0,1-.762-1.486,1.564,1.564,0,0,1,1.016-1.347,2.949,2.949,0,0,1,3.025.462c-.115.154-.208.285-.277.37-.47-.177-.878-.346-1.293-.477a1.611,1.611,0,0,0-1.039.077,1.1,1.1,0,0,0-.731.708.92.92,0,0,0,.377,1.17,6.165,6.165,0,0,0,.985.485c.454.2.932.346,1.37.577a1.738,1.738,0,0,1,.508,2.694,1.966,1.966,0,0,1-1.209.624,3.622,3.622,0,0,1-2.925-.762,1.031,1.031,0,0,1-.108-.146Z" transform="translate(-44.343 -14.7)" fill="#adadad"/>
    <path id="Path_46579" data-name="Path 46579" d="M141.046,64.089c-.377-.015-.685-.038-1.016-.054v-.447c.346-.046.654-.085,1.008-.131.031-.616.062-1.216.085-1.848h.57v1.878h1.886c.023.2.038.346.062.57h-1.909c-.015.2-.031.346-.031.485,0,1.309.008,2.617,0,3.926-.015,1.132.539,1.4,1.524,1.232.123-.023.246-.062.416-.1.046.154.092.3.139.447a2.432,2.432,0,0,1-1.432.246,1.259,1.259,0,0,1-1.147-.939,3.592,3.592,0,0,1-.131-.993c-.015-1.232,0-2.456,0-3.688V64.1Z" transform="translate(-32.229 -14.18)" fill="#adadad"/>
    <path id="Path_46580" data-name="Path 46580" d="M40.026,69.583c.046.177.085.316.123.462a2.306,2.306,0,0,1-1.555.216,1.172,1.172,0,0,1-.978-.816,4.649,4.649,0,0,1-.192-1.17c-.023-1.216-.008-2.425-.008-3.641v-.547c-.362-.015-.67-.031-1.016-.046v-.454c.331-.038.647-.085,1.008-.131.038-.608.085-1.224.123-1.855h.531v1.878h1.886c.023.2.038.346.062.57H38.1c-.015.2-.031.339-.031.477v3.926c0,1.162.57,1.417,1.578,1.232.108-.023.216-.054.385-.1Z" transform="translate(-8.378 -14.178)" fill="#adadad"/>
    <path id="Path_46581" data-name="Path 46581" d="M213.915,63.584c.37-.046.67-.085,1.016-.131.031-.616.062-1.232.1-1.863h.493v1.848c.647.092,1.27,0,1.917.069.015.169.023.316.038.531h-1.9c-.015.169-.038.269-.038.377,0,1.263-.008,2.525,0,3.788a4.133,4.133,0,0,0,.092.808.812.812,0,0,0,.839.708c.331,0,.662-.054,1.047-.085.038.108.085.246.146.4a2.416,2.416,0,0,1-1.624.216,1.205,1.205,0,0,1-.97-.9,6.35,6.35,0,0,1-.154-1.324c-.015-1.162,0-2.333,0-3.5,0-.139-.023-.277-.031-.447l-.962-.046c0-.154-.015-.285-.023-.454Z" transform="translate(-49.231 -14.176)" fill="#adadad"/>
    <path id="Path_46582" data-name="Path 46582" d="M200.811,61.588h.493v1.878h1.909c.015.216.023.37.038.585h-1.9c-.015.185-.031.308-.031.431,0,1.186-.008,2.363,0,3.549a5.027,5.027,0,0,0,.085.9.859.859,0,0,0,.962.8,8.8,8.8,0,0,0,.939-.108c.046.108.1.239.169.416a2.2,2.2,0,0,1-2.04.046,1.473,1.473,0,0,1-.693-1.3c-.038-.67-.038-1.34-.046-2.009V64.621c0-.169-.015-.346-.023-.539l-.962-.046v-.454c.331-.046.639-.085,1-.139.031-.616.062-1.232.092-1.863Z" transform="translate(-45.965 -14.173)" fill="#adadad"/>
    <path id="Path_46583" data-name="Path 46583" d="M177.11,59.81h.662v9.176c0,.177.062.316.262.331.3.023.354.216.354.462-.639.293-1.124.046-1.216-.624a4.9,4.9,0,0,1-.046-.67q0-4.146-.015-8.291Z" transform="translate(-40.764 -13.766)" fill="#adadad"/>
    <path id="Path_46584" data-name="Path 46584" d="M34.606,69.4c.031.146.046.262.069.385-.054.038-.092.085-.131.092-.7.123-1.055-.131-1.1-.824-.038-.539-.031-1.085-.031-1.624-.008-2.456-.015-4.919-.023-7.375,0-.062.015-.123.023-.216h.593c.008.092.031.2.031.308v8.576c.008.531.015.547.562.685Z" transform="translate(-7.685 -13.773)" fill="#adadad"/>
  </g>
</svg>
