<svg xmlns="http://www.w3.org/2000/svg" width="101.85" height="54.174" viewBox="0 0 101.85 54.174">
  <path id="wsj-icon" d="M17.4,15.169v1.089l1.011.232c1.553.388,1.787,1.321,2.408,4.273l1.617,8.3L17.932,53.3,11.794,22.844c-.7-3.342-.933-5.828,1.555-6.372l1.165-.232V15.169H0v1.089l1.477.39c1.477.388,2.1,1.087,3.108,5.672l9.867,46.7H17L23.6,33.74l7.32,35.275h2.021l9.48-45.253c1.089-5.2,1.555-6.684,3.422-7.161l1.475-.39V15.169H36.658v1.089l1.631.31c2.331.466,2.874,1.942,1.786,7.925L34.263,53.3,28.375,22.844c-.637-3.03-1.011-5.828,1.555-6.294l1.709-.31V15.151Zm69.137.146V16.4l1.942.466c1.708.388,2.408,1.011,2.408,3.186V57.74c0,4.195,0,9.712-4.352,9.712-2.486,0-4.424-2.175-4.271-3.652.154-2.408,4.351-2.253,4.583-6.138a3.577,3.577,0,0,0-3.186-4.2c-2.408-.31-5.36,1.709-5.439,5.75-.076,5.2,3.342,9.943,9.166,9.943,6.445,0,10.662-4.348,10.662-12.663l0-36.363c0-2.175.544-2.876,2.1-3.262l1.7-.484V15.3Zm-26.179-.331c-6.6,0-10.333,5.517-10.333,12.742,0,13.443,17.327,18.648,17.327,30.77,0,5.75-2.409,8.934-5.888,8.934-5.2,0-8.936-6.291-9.867-16.315H50.436V68.831h.933c.777-2.546,1.787-2.8,2.642-2.8,1.477,0,3.028,3.1,7.535,3.1,6.915,0,11.42-5.98,11.423-14.221,0-16.161-17.327-20.123-17.327-31.7,0-2.642.777-6.525,4.663-6.525,5.6,0,8,7.381,8.936,16.317h1.165V15.3h-.933c-.388,1.709-1.087,2.486-2.1,2.486-1.787,0-2.705-2.8-6.993-2.8ZM72.87,30.222v.191l.037-.022-.019-.159Z" transform="translate(0 -14.984)" fill="#adadad"/>
</svg>
